<svg width="100" height="102" viewBox="0 0 100 102" fill="none" xmlns="http://www.w3.org/2000/svg">
<circle cx="50" cy="50" r="48.5" fill="#FFF2EB" stroke="#A08D83" stroke-width="3"/>
<path d="M56.3298 26.008C57.8658 25.752 59.5298 25.7733 61.3218 26.072C62.9431 26.328 64.3724 26.7547 65.6098 27.352C66.7191 27.9067 67.4444 28.4613 67.7858 29.016C68.7244 30.424 68.9164 32.2373 68.3618 34.456C68.1484 35.1813 67.7858 35.8213 67.2738 36.376C66.7191 36.888 66.0364 37.3573 65.2257 37.784C64.2871 38.296 63.3484 38.552 62.4098 38.552C61.9404 38.552 61.5991 38.36 61.3857 37.976C61.2578 37.7627 61.2791 37.2933 61.4498 36.568C61.9191 34.9893 61.7484 33.752 60.9378 32.856C60.2124 32.0027 58.4204 31.384 55.5618 31C55.1778 30.9573 54.7938 30.9147 54.4098 30.872C52.4898 30.7867 50.8044 31.1707 49.3538 32.024C48.1591 32.7493 47.3271 33.944 46.8578 35.608C46.6444 36.5893 46.6444 37.5493 46.8578 38.488C47.1991 39.6827 47.8391 40.7493 48.7778 41.688C49.8444 42.6693 51.6364 43.8 54.1538 45.08C56.2018 46.104 57.7591 46.9573 58.8258 47.64C61.8978 49.6453 63.7111 51.9067 64.2658 54.424C64.4364 55.6187 64.4151 56.792 64.2018 57.944C63.9031 59.4373 63.2631 60.952 62.2818 62.488C59.7218 66.328 55.7751 69.144 50.4418 70.936C49.1191 71.3627 47.7751 71.704 46.4097 71.96C45.0871 72.216 43.5298 72.344 41.7378 72.344C40.3298 72.3867 39.1138 72.3013 38.0898 72.088C34.7191 71.3627 32.0311 69.6987 30.0258 67.096C28.6178 65.1333 28.3618 62.8507 29.2578 60.248C29.9831 57.9867 31.2844 56.216 33.1618 54.936C34.6978 53.912 36.2978 53.336 37.9618 53.208C38.4738 53.208 38.8151 53.2507 38.9858 53.336C39.5831 53.6773 39.6898 54.232 39.3058 55C38.8791 55.9387 37.9831 56.7493 36.6178 57.432L36.2338 57.624L36.0417 58.264C35.7431 59.2027 35.6578 60.0133 35.7858 60.696C35.8284 61.3787 36.0418 62.04 36.4258 62.68C37.4498 64.1733 38.7511 65.304 40.3298 66.072C43.0178 67.3093 45.9404 67.672 49.0978 67.16C53.5778 66.3493 56.2658 64.216 57.1618 60.76C57.8018 58.328 57.1404 56.1093 55.1778 54.104C53.8124 52.7813 51.6364 51.3947 48.6498 49.944C46.8151 49.0053 45.8764 48.536 45.8338 48.536C41.6098 46.0613 39.5618 43.1387 39.6898 39.768C39.7324 38.488 40.0951 37.144 40.7778 35.736C42.3138 32.664 45.0444 30.1467 48.9698 28.184C51.4444 26.9893 53.8978 26.264 56.3298 26.008Z" fill="#5A4040"/>
</svg>
