<svg width="100" height="100" viewBox="0 0 100 100" fill="none" xmlns="http://www.w3.org/2000/svg">
<circle cx="50" cy="50" r="47.5" fill="#8B6E6E" stroke="#685252" stroke-width="5"/>
<g filter="url(#filter0_d_19_4)">
<path d="M7.5 60.5V41.0469C7.5 40.6406 7.64583 40.2969 7.9375 40.0156C8.22917 39.7344 8.57812 39.5938 8.98438 39.5938H27C27.4062 39.5938 27.75 39.7396 28.0312 40.0312C28.3229 40.3229 28.4688 40.6719 28.4688 41.0781V42.5469C28.4688 42.9531 28.3229 43.3021 28.0312 43.5938C27.75 43.875 27.4062 44.0156 27 44.0156H13.3906V48.5625H25.1094C25.5156 48.5625 25.8594 48.7083 26.1406 49C26.4323 49.2812 26.5781 49.625 26.5781 50.0312V51.5C26.5781 51.9062 26.4323 52.2552 26.1406 52.5469C25.8594 52.8281 25.5156 52.9688 25.1094 52.9688H13.3906V57.5781H26.9688C27.3646 57.5781 27.7031 57.7188 27.9844 58C28.2656 58.2812 28.4062 58.625 28.4062 59.0312V60.5312C28.4062 60.9375 28.2604 61.2865 27.9688 61.5781C27.6771 61.8594 27.3281 62 26.9219 62H8.98438C8.57812 62 8.22917 61.8594 7.9375 61.5781C7.64583 61.2865 7.5 60.9271 7.5 60.5ZM29.75 53.1094V51.25C29.75 50.9688 29.8385 50.7396 30.0156 50.5625C30.2031 50.375 30.4323 50.2812 30.7031 50.2812H42.4844C42.7656 50.2812 42.9948 50.375 43.1719 50.5625C43.3594 50.7396 43.4531 50.9688 43.4531 51.25V53.1094C43.4531 53.3906 43.3594 53.6198 43.1719 53.7969C42.9948 53.974 42.7656 54.0625 42.4844 54.0625H30.7031C30.4219 54.0625 30.1927 53.974 30.0156 53.7969C29.8385 53.6198 29.75 53.3906 29.75 53.1094ZM45.0312 56.2656C45.0312 55.651 45.2135 55.2135 45.5781 54.9531C45.9427 54.6823 46.2969 54.5469 46.6406 54.5469H48.5C49.4375 54.5469 50.151 55.0573 50.6406 56.0781C51.1302 57.099 52.2292 57.6094 53.9375 57.6094L59.4062 57.7188C61.2396 57.7188 62.1562 57.1198 62.1562 55.9219C62.1562 55.0156 61.0365 54.3021 58.7969 53.7812C57.7969 53.5417 56.6927 53.3073 55.4844 53.0781C54.276 52.8385 53.0729 52.5417 51.875 52.1875C50.6875 51.8333 49.5938 51.4167 48.5938 50.9375C47.5938 50.4583 46.7812 49.8021 46.1562 48.9688C45.5417 48.125 45.2344 47.1354 45.2344 46C45.2344 43.9062 45.9792 42.2969 47.4688 41.1719C48.9583 40.0365 51.5208 39.4688 55.1562 39.4688L59.125 39.5625C61.2604 39.5625 63.1823 40.1146 64.8906 41.2188C66.6094 42.3125 67.4688 43.6823 67.4688 45.3281C67.4688 45.9427 67.2865 46.3854 66.9219 46.6562C66.5573 46.9271 66.2083 47.0625 65.875 47.0625H64.0156C63.0781 47.0625 62.3646 46.5521 61.875 45.5312C61.3854 44.5 60.2865 43.9844 58.5781 43.9844L53.875 43.8906C52.0417 43.8906 51.125 44.4896 51.125 45.6875C51.125 46.3438 51.7031 46.8802 52.8594 47.2969C54.026 47.7135 55.4323 48.0833 57.0781 48.4062C58.7344 48.7188 60.3958 49.099 62.0625 49.5469C63.7292 49.9948 65.1406 50.7344 66.2969 51.7656C67.4635 52.7865 68.0469 54.0625 68.0469 55.5938C68.0469 57.6875 67.2969 59.3021 65.7969 60.4375C64.3073 61.5625 61.75 62.125 58.125 62.125L53.3906 62.0312C51.2552 62.0312 49.3281 61.4844 47.6094 60.3906C45.8906 59.2865 45.0312 57.9115 45.0312 56.2656ZM71.25 60.5312V41.0781C71.25 40.6719 71.3906 40.3229 71.6719 40.0312C71.9531 39.7396 72.2969 39.5938 72.7031 39.5938H84.625C90.9271 39.5938 94.0781 42.5 94.0781 48.3125C94.0781 54.1146 90.9271 57.0156 84.625 57.0156H77.1406V60.5312C77.1406 60.9375 76.9948 61.2865 76.7031 61.5781C76.4219 61.8594 76.0781 62 75.6719 62H72.7344C72.3281 62 71.9792 61.8594 71.6875 61.5781C71.3958 61.2865 71.25 60.9375 71.25 60.5312ZM77.1406 52.5938H82.8438C84.5938 52.5938 85.9219 52.3021 86.8281 51.7188C87.7344 51.125 88.1875 49.9896 88.1875 48.3125C88.1875 46.625 87.7344 45.4896 86.8281 44.9062C85.9219 44.3125 84.5938 44.0156 82.8438 44.0156H77.1406V52.5938Z" fill="white"/>
</g>
<defs>
<filter id="filter0_d_19_4" x="2.7" y="38.6687" width="96.1781" height="32.2563" filterUnits="userSpaceOnUse" color-interpolation-filters="sRGB">
<feFlood flood-opacity="0" result="BackgroundImageFix"/>
<feColorMatrix in="SourceAlpha" type="matrix" values="0 0 0 0 0 0 0 0 0 0 0 0 0 0 0 0 0 0 127 0" result="hardAlpha"/>
<feOffset dy="4"/>
<feGaussianBlur stdDeviation="2.4"/>
<feComposite in2="hardAlpha" operator="out"/>
<feColorMatrix type="matrix" values="0 0 0 0 0 0 0 0 0 0 0 0 0 0 0 0 0 0 0.52 0"/>
<feBlend mode="normal" in2="BackgroundImageFix" result="effect1_dropShadow_19_4"/>
<feBlend mode="normal" in="SourceGraphic" in2="effect1_dropShadow_19_4" result="shape"/>
</filter>
</defs>
</svg>
