<svg width="446" height="126" viewBox="0 0 446 126" fill="none" xmlns="http://www.w3.org/2000/svg">
<rect x="1.5" y="51.5" width="41" height="18" rx="1.5" fill="#FFF2EB" stroke="#A08D83" stroke-width="3"/>
<path d="M84 52.5H122C122.828 52.5 123.5 53.1716 123.5 54V69C123.5 69.8284 122.828 70.5 122 70.5H84C83.1716 70.5 82.5 69.8284 82.5 69V54C82.5 53.1716 83.1716 52.5 84 52.5Z" fill="#FFF2EB" stroke="#A08D83" stroke-width="3"/>
<rect x="52.5" y="123.5" width="41" height="18" rx="1.5" transform="rotate(-90 52.5 123.5)" fill="#FFF2EB" stroke="#A08D83" stroke-width="3"/>
<rect x="52.5" y="42.5" width="41" height="18" rx="1.5" transform="rotate(-90 52.5 42.5)" fill="#FFF2EB" stroke="#A08D83" stroke-width="3"/>
<rect x="42.1127" y="53.8406" width="41" height="18" rx="1.5" transform="rotate(-135 42.1127 53.8406)" fill="#FFF2EB" stroke="#A08D83" stroke-width="3"/>
<rect x="99.1127" y="112.841" width="41" height="18" rx="1.5" transform="rotate(-135 99.1127 112.841)" fill="#FFF2EB" stroke="#A08D83" stroke-width="3"/>
<rect x="12.1213" y="98.1127" width="41" height="18" rx="1.5" transform="rotate(-45 12.1213 98.1127)" fill="#FFF2EB" stroke="#A08D83" stroke-width="3"/>
<rect x="69.1213" y="41.1127" width="41" height="18" rx="1.5" transform="rotate(-45 69.1213 41.1127)" fill="#FFF2EB" stroke="#A08D83" stroke-width="3"/>
<circle cx="63" cy="63" r="48.5" fill="#FFF2EB" stroke="#A08D83" stroke-width="3"/>
<path d="M68.9053 51.88C69.8653 51.72 70.9053 51.7333 72.0253 51.92C73.0386 52.08 73.932 52.3467 74.7053 52.72C75.3986 53.0667 75.852 53.4133 76.0653 53.76C76.652 54.64 76.772 55.7733 76.4253 57.16C76.292 57.6133 76.0653 58.0133 75.7453 58.36C75.3986 58.68 74.972 58.9733 74.4653 59.24C73.8786 59.56 73.292 59.72 72.7053 59.72C72.412 59.72 72.1986 59.6 72.0653 59.36C71.9853 59.2267 71.9986 58.9333 72.1053 58.48C72.3986 57.4933 72.292 56.72 71.7853 56.16C71.332 55.6267 70.212 55.24 68.4253 55C68.1853 54.9733 67.9453 54.9467 67.7053 54.92C66.5053 54.8667 65.452 55.1067 64.5453 55.64C63.7986 56.0933 63.2786 56.84 62.9853 57.88C62.852 58.4933 62.852 59.0933 62.9853 59.68C63.1986 60.4267 63.5986 61.0933 64.1853 61.68C64.852 62.2933 65.972 63 67.5453 63.8C68.8253 64.44 69.7986 64.9733 70.4653 65.4C72.3853 66.6533 73.5186 68.0667 73.8653 69.64C73.972 70.3867 73.9586 71.12 73.8253 71.84C73.6386 72.7733 73.2386 73.72 72.6253 74.68C71.0253 77.08 68.5586 78.84 65.2253 79.96C64.3986 80.2267 63.5586 80.44 62.7053 80.6C61.8786 80.76 60.9053 80.84 59.7853 80.84C58.9053 80.8667 58.1453 80.8133 57.5053 80.68C55.3986 80.2267 53.7186 79.1867 52.4653 77.56C51.5853 76.3333 51.4253 74.9067 51.9853 73.28C52.4386 71.8667 53.252 70.76 54.4253 69.96C55.3853 69.32 56.3853 68.96 57.4253 68.88C57.7453 68.88 57.9586 68.9067 58.0653 68.96C58.4386 69.1733 58.5053 69.52 58.2653 70C57.9986 70.5867 57.4386 71.0933 56.5853 71.52L56.3453 71.64L56.2253 72.04C56.0386 72.6267 55.9853 73.1333 56.0653 73.56C56.092 73.9867 56.2253 74.4 56.4653 74.8C57.1053 75.7333 57.9186 76.44 58.9053 76.92C60.5853 77.6933 62.412 77.92 64.3853 77.6C67.1853 77.0933 68.8653 75.76 69.4253 73.6C69.8253 72.08 69.412 70.6933 68.1853 69.44C67.332 68.6133 65.972 67.7467 64.1053 66.84C62.9586 66.2533 62.372 65.96 62.3453 65.96C59.7053 64.4133 58.4253 62.5867 58.5053 60.48C58.532 59.68 58.7586 58.84 59.1853 57.96C60.1453 56.04 61.852 54.4667 64.3053 53.24C65.852 52.4933 67.3853 52.04 68.9053 51.88Z" fill="#5A4040"/>
<path d="M88.2831 52.72H95.9231C97.9765 52.88 99.6831 53.32 101.043 54.04C102.51 54.8133 103.51 55.7733 104.043 56.92C104.603 58.04 104.683 59.3467 104.283 60.84C103.536 63.72 101.576 66.24 98.4031 68.4C97.6298 68.9067 96.8165 69.3733 95.9631 69.8C93.4298 71.0533 90.8298 71.72 88.1631 71.8H87.3631L87.1631 71.68L86.9631 71.56L86.5231 72.92C85.7498 75.2933 84.9098 77.5867 84.0031 79.8C83.7898 80.36 83.5231 80.8133 83.2031 81.16C82.3765 81.9333 81.4165 82.36 80.3231 82.44C80.1098 82.44 79.9365 82.4 79.8031 82.32C79.7231 82.2667 79.6298 82.1733 79.5231 82.04C79.4698 81.88 79.5765 81.4667 79.8431 80.8C82.5631 74.24 84.4565 67.4933 85.5231 60.56C85.9498 57.52 86.1365 55.9467 86.0831 55.84C86.0031 55.7867 85.4698 55.8533 84.4831 56.04C82.9898 56.28 81.9098 56.6933 81.2431 57.28C80.8165 57.7067 80.4965 58.2533 80.2831 58.92C80.1498 59.2667 79.9498 59.6133 79.6831 59.96C78.7231 60.7867 77.7098 61.2533 76.6431 61.36C76.2965 61.36 76.0698 61.24 75.9631 61C75.8831 60.84 75.9098 60.5333 76.0431 60.08C76.5765 58.5333 77.5898 57.1867 79.0831 56.04C81.5365 54.12 84.6031 53.0133 88.2831 52.72ZM92.6031 55.84C91.5365 55.7333 90.7631 55.7333 90.2831 55.84C90.2831 56.2667 90.1498 57.28 89.8831 58.88C89.2965 62.7467 88.4965 66.3867 87.4831 69.8L87.4031 70.08L87.6031 69.88C88.2965 69.24 89.0565 68.8533 89.8831 68.72C89.9898 68.6933 90.1898 68.68 90.4831 68.68C90.8831 68.68 91.4831 68.6267 92.2831 68.52C95.3765 68.0133 97.6298 66.6267 99.0431 64.36C99.4431 63.72 99.7365 63.04 99.9231 62.32C100.323 60.9867 100.176 59.8 99.4831 58.76C99.2165 58.3067 98.7898 57.8667 98.2031 57.44C96.7898 56.5333 94.9231 56 92.6031 55.84Z" fill="#C9B5AA"/>
<path d="M156.407 38.008C157.175 37.9227 157.985 37.88 158.839 37.88C160.289 37.9227 161.505 38.072 162.487 38.328C164.577 38.84 165.687 40.0347 165.815 41.912C165.857 42.68 165.729 43.4693 165.431 44.28C165.004 45.3893 164.492 46.2427 163.895 46.84C162.529 48.248 160.887 49.016 158.967 49.144C158.455 49.144 158.113 48.9307 157.943 48.504C157.857 48.3333 157.836 48.12 157.879 47.864C157.879 47.608 158.028 47.288 158.327 46.904C158.668 46.2213 158.839 45.624 158.839 45.112C158.711 44.1733 158.305 43.6187 157.623 43.448C156.172 42.9787 154.764 42.7867 153.399 42.872C151.735 43 150.284 43.448 149.047 44.216C147.297 45.368 146.273 47.032 145.975 49.208C145.847 50.0187 145.889 50.7653 146.103 51.448C146.615 53.2827 147.98 54.6267 150.199 55.48C151.692 56.12 153.356 56.44 155.191 56.44C155.617 56.44 155.959 56.5893 156.215 56.888C156.727 57.4853 156.449 58.3173 155.383 59.384C155.297 59.4267 155.212 59.4907 155.127 59.576C153.676 60.8133 152.204 61.432 150.711 61.432C148.663 61.432 146.721 62.008 144.887 63.16C142.156 64.8667 140.236 67.3413 139.127 70.584C139.041 70.8827 138.956 71.1813 138.871 71.48C138.743 71.9067 138.679 72.4613 138.679 73.144C138.679 73.784 138.721 74.2747 138.807 74.616C139.447 76.5787 140.876 77.944 143.095 78.712C144.673 79.2667 146.209 79.48 147.703 79.352C150.476 79.096 152.887 77.6027 154.935 74.872C155.575 74.0187 156.236 73.3787 156.919 72.952C158.156 72.1413 159.351 71.736 160.503 71.736C160.972 71.736 161.313 71.928 161.527 72.312C161.825 72.7813 161.548 73.5493 160.695 74.616C157.708 78.6267 153.825 81.5067 149.047 83.256C148.919 83.2987 148.791 83.3413 148.663 83.384C145.164 84.4933 142.007 84.728 139.191 84.088C136.631 83.6187 134.604 82.424 133.111 80.504C131.575 78.5413 131.233 76.1733 132.087 73.4C133.281 69.176 135.841 65.4853 139.767 62.328C141.132 61.2613 142.241 60.4933 143.095 60.024C143.223 59.9387 143.308 59.8747 143.351 59.832L143.095 59.64C142.753 59.4693 142.113 59.0213 141.175 58.296C140.236 57.4427 139.553 56.2907 139.127 54.84C139.041 54.456 138.999 53.8587 138.999 53.048C138.999 52.1947 139.041 51.576 139.127 51.192C139.511 49.272 140.428 47.4373 141.879 45.688C142.817 44.536 143.735 43.64 144.631 43C148.172 40.1413 152.097 38.4773 156.407 38.008ZM365.642 38.008C367.178 37.752 368.842 37.7733 370.634 38.072C372.256 38.328 373.685 38.7547 374.922 39.352C376.032 39.9067 376.757 40.4613 377.098 41.016C378.037 42.424 378.229 44.2373 377.674 46.456C377.461 47.1813 377.098 47.8213 376.586 48.376C376.032 48.888 375.349 49.3573 374.538 49.784C373.6 50.296 372.661 50.552 371.722 50.552C371.253 50.552 370.912 50.36 370.698 49.976C370.57 49.7627 370.592 49.2933 370.762 48.568C371.232 46.9893 371.061 45.752 370.25 44.856C369.525 44.0027 367.733 43.384 364.874 43C364.49 42.9573 364.106 42.9147 363.722 42.872C361.802 42.7867 360.117 43.1707 358.666 44.024C357.472 44.7493 356.64 45.944 356.17 47.608C355.957 48.5893 355.957 49.5493 356.17 50.488C356.512 51.6827 357.152 52.7493 358.09 53.688C359.157 54.6693 360.949 55.8 363.466 57.08C365.514 58.104 367.072 58.9573 368.138 59.64C371.21 61.6453 373.024 63.9067 373.578 66.424C373.749 67.6187 373.728 68.792 373.514 69.944C373.216 71.4373 372.576 72.952 371.594 74.488C369.034 78.328 365.088 81.144 359.754 82.936C358.432 83.3627 357.088 83.704 355.722 83.96C354.4 84.216 352.842 84.344 351.05 84.344C349.642 84.3867 348.426 84.3013 347.402 84.088C344.032 83.3627 341.344 81.6987 339.338 79.096C337.93 77.1333 337.674 74.8507 338.57 72.248C339.296 69.9867 340.597 68.216 342.474 66.936C344.01 65.912 345.61 65.336 347.274 65.208C347.786 65.208 348.128 65.2507 348.298 65.336C348.896 65.6773 349.002 66.232 348.618 67C348.192 67.9387 347.296 68.7493 345.93 69.432L345.546 69.624L345.354 70.264C345.056 71.2027 344.97 72.0133 345.098 72.696C345.141 73.3787 345.354 74.04 345.738 74.68C346.762 76.1733 348.064 77.304 349.642 78.072C352.33 79.3093 355.253 79.672 358.41 79.16C362.89 78.3493 365.578 76.216 366.474 72.76C367.114 70.328 366.453 68.1093 364.49 66.104C363.125 64.7813 360.949 63.3947 357.962 61.944C356.128 61.0053 355.189 60.536 355.146 60.536C350.922 58.0613 348.874 55.1387 349.002 51.768C349.045 50.488 349.408 49.144 350.09 47.736C351.626 44.664 354.357 42.1467 358.282 40.184C360.757 38.9893 363.21 38.264 365.642 38.008Z" fill="#816D63"/>
<path d="M191.179 54.712C192.63 54.4133 193.718 55.0747 194.443 56.696C194.571 56.9947 194.678 57.2933 194.763 57.592C194.849 57.976 194.891 58.68 194.891 59.704C194.891 61.4107 194.507 63.7787 193.739 66.808C192.545 71.7147 191.009 75.6613 189.131 78.648C188.065 80.184 186.977 81.3787 185.867 82.232C184.971 82.872 184.075 83.2987 183.179 83.512C182.795 83.5973 182.177 83.64 181.323 83.64C180.043 83.64 178.87 83.4907 177.803 83.192C174.219 81.9547 172.555 79.1813 172.811 74.872C172.939 72.824 173.985 69.1333 175.947 63.8C176.715 61.5387 177.142 60.088 177.227 59.448C177.441 58.4667 177.334 57.912 176.907 57.784C176.395 57.6133 175.798 57.72 175.115 58.104C174.219 58.6587 173.515 59.5333 173.003 60.728C172.577 61.496 172.107 62.7973 171.595 64.632C171.467 64.888 171.382 65.0373 171.339 65.08C171.254 65.1653 170.742 65.208 169.803 65.208H168.395L168.203 65.016C168.075 64.888 168.011 64.7173 168.011 64.504C168.097 63.8213 168.459 62.7547 169.099 61.304C169.867 59.6827 170.827 58.2533 171.979 57.016C172.833 56.2053 173.686 55.608 174.539 55.224C175.222 54.9253 176.054 54.776 177.035 54.776C178.102 54.776 179.019 54.968 179.787 55.352C180.342 55.6507 180.769 55.9707 181.067 56.312C181.409 56.6107 181.729 57.0373 182.027 57.592C182.411 58.4027 182.582 59.256 182.539 60.152C182.539 61.0053 182.262 62.1787 181.707 63.672C181.665 63.8853 181.579 64.1413 181.451 64.44C180.726 66.488 180.278 67.7253 180.107 68.152C178.486 72.9733 178.038 76.408 178.763 78.456C179.233 79.992 180.321 80.7387 182.027 80.696C182.241 80.696 182.454 80.6747 182.667 80.632C183.521 80.504 184.353 80.0347 185.163 79.224C186.87 77.5173 188.427 73.8053 189.835 68.088C190.219 66.424 190.369 65.208 190.283 64.44C190.113 62.9467 189.537 61.7093 188.555 60.728C188.214 60.3867 187.979 60.0667 187.851 59.768C187.723 59.512 187.659 59.128 187.659 58.616C187.659 58.104 187.702 57.72 187.787 57.464C188.257 56.3973 188.961 55.6293 189.899 55.16C190.241 54.9467 190.667 54.7973 191.179 54.712ZM213.449 54.776L214.729 54.712H214.793C215.731 54.7547 216.563 54.968 217.289 55.352C218.014 55.6933 218.654 56.1627 219.209 56.76L219.721 57.272L220.105 56.952C221.129 55.9707 222.238 55.7147 223.433 56.184C224.03 56.3973 224.435 56.76 224.649 57.272C224.819 57.7413 224.777 58.5733 224.521 59.768C224.307 60.7067 223.646 63.352 222.537 67.704C221.001 73.9333 220.211 77.176 220.169 77.432C219.998 78.6267 219.977 79.4587 220.105 79.928C220.19 80.1413 220.318 80.312 220.489 80.44C220.617 80.568 220.809 80.632 221.065 80.632C221.363 80.632 221.598 80.5893 221.769 80.504C222.579 79.9067 223.411 77.9653 224.265 74.68C224.478 73.8693 224.649 73.4213 224.777 73.336C224.862 73.2507 225.374 73.208 226.313 73.208C227.251 73.208 227.785 73.2507 227.913 73.336C227.998 73.4213 228.041 73.592 228.041 73.848C228.041 74.104 227.934 74.616 227.721 75.384C226.142 80.76 223.902 83.5333 221.001 83.704C218.825 83.832 217.075 83.0853 215.753 81.464C215.539 81.208 215.347 80.9307 215.177 80.632C215.091 80.376 215.027 80.248 214.985 80.248L214.537 80.632C213.043 81.9547 211.571 82.8293 210.121 83.256C207.347 84.1947 204.851 83.768 202.633 81.976C202.377 81.7627 202.142 81.528 201.929 81.272C201.289 80.632 200.755 79.864 200.329 78.968C199.049 76.3653 198.793 73.3147 199.561 69.816C200.542 65.1653 202.761 61.3253 206.217 58.296C208.521 56.2907 210.931 55.1173 213.449 54.776ZM214.793 57.784C213.043 57.4853 211.358 58.3173 209.737 60.28C209.31 60.8347 208.926 61.432 208.585 62.072C207.945 63.3093 207.177 65.7413 206.281 69.368C205.726 71.416 205.321 73.208 205.065 74.744C204.894 76.1947 204.894 77.304 205.065 78.072C205.491 79.5653 206.323 80.4187 207.561 80.632C208.286 80.76 209.161 80.6107 210.185 80.184C211.721 79.3307 213.171 77.9013 214.537 75.896L214.857 75.448L216.457 69.112L218.057 62.712L217.929 62.2C217.545 59.768 216.585 58.3173 215.049 57.848C214.963 57.8053 214.878 57.784 214.793 57.784ZM256.568 38.968C259.896 38.712 261.539 38.584 261.496 38.584C261.88 38.584 262.136 38.7333 262.264 39.032C262.307 39.2027 260.771 45.56 257.656 58.104L252.792 77.56C252.707 78.5413 252.707 79.3307 252.792 79.928C252.878 80.1413 253.006 80.312 253.176 80.44C253.304 80.568 253.496 80.632 253.752 80.632C254.051 80.632 254.286 80.5893 254.456 80.504C255.267 79.9067 256.099 77.9653 256.952 74.68C257.166 73.8693 257.336 73.4213 257.464 73.336C257.55 73.2507 258.062 73.208 259 73.208C259.939 73.208 260.472 73.2507 260.6 73.336C260.686 73.4213 260.728 73.592 260.728 73.848C260.728 74.104 260.622 74.616 260.408 75.384C258.83 80.76 256.59 83.5333 253.688 83.704C251.512 83.832 249.763 83.0853 248.44 81.464C248.227 81.208 248.035 80.9307 247.864 80.632C247.779 80.376 247.715 80.248 247.672 80.248L247.224 80.632C245.731 81.9547 244.259 82.8293 242.808 83.256C240.035 84.1947 237.539 83.768 235.32 81.976C235.064 81.7627 234.83 81.528 234.616 81.272C233.976 80.632 233.443 79.864 233.016 78.968C231.95 76.792 231.608 74.2107 231.992 71.224C232.675 66.36 234.744 62.264 238.2 58.936C240.419 56.8027 242.83 55.4587 245.432 54.904C245.816 54.8187 246.414 54.776 247.224 54.776C248.291 54.776 249.208 54.9467 249.976 55.288C250.574 55.5867 251.128 55.992 251.64 56.504C251.982 56.8453 252.152 56.9733 252.152 56.888C252.195 56.8453 252.728 54.7973 253.752 50.744C254.734 46.776 255.246 44.5573 255.288 44.088C255.288 43.704 255.246 43.4693 255.16 43.384C254.862 43.0853 253.944 42.9147 252.408 42.872C251.384 42.872 250.787 42.7227 250.616 42.424L250.552 42.232L250.872 40.952C251.043 40.1413 251.214 39.6507 251.384 39.48C251.512 39.352 251.64 39.288 251.768 39.288L256.568 38.968ZM247.48 57.784C245.731 57.4853 244.046 58.3173 242.424 60.28C241.998 60.8347 241.614 61.432 241.272 62.072C240.632 63.3093 239.864 65.7413 238.968 69.368C238.414 71.416 238.008 73.208 237.752 74.744C237.582 76.1947 237.582 77.304 237.752 78.072C238.179 79.5653 239.011 80.4187 240.248 80.632C240.974 80.76 241.848 80.6107 242.872 80.184C244.408 79.3307 245.859 77.9013 247.224 75.896L247.544 75.448L249.144 69.048L250.744 62.648L250.616 62.2C250.232 59.768 249.294 58.3173 247.8 57.848C247.715 57.8053 247.608 57.784 247.48 57.784ZM279.976 54.776C281.298 54.6053 282.493 54.648 283.56 54.904C284.2 55.0747 284.861 55.3093 285.544 55.608C287.08 56.376 288.061 57.5067 288.488 59C288.573 59.2987 288.616 59.7893 288.616 60.472C288.616 61.24 288.573 61.7733 288.488 62.072C288.104 63.352 287.485 64.4613 286.632 65.4C285.437 66.5947 283.645 67.512 281.256 68.152C279.293 68.6213 276.626 68.92 273.256 69.048H271.72L271.592 69.432C271.165 71.7787 270.952 72.9093 270.952 72.824C270.738 74.36 270.717 75.7253 270.888 76.92C271.357 79.1813 272.616 80.4187 274.664 80.632C274.834 80.6747 275.026 80.696 275.24 80.696C277.458 80.696 279.592 80.0773 281.64 78.84C282.664 78.2427 283.709 77.4107 284.776 76.344C285.544 75.576 286.077 75.2347 286.376 75.32L287.272 76.216C287.869 76.8987 288.104 77.3893 287.976 77.688C287.762 78.072 287.037 78.84 285.8 79.992C283.752 81.5707 281.362 82.6587 278.632 83.256C277.565 83.512 276.306 83.64 274.856 83.64C273.533 83.64 272.424 83.4907 271.528 83.192C270.248 82.7227 269.096 81.9973 268.072 81.016C267.304 80.2053 266.706 79.3307 266.28 78.392C265.469 76.8133 265 74.936 264.872 72.76C264.744 68.408 266.002 64.568 268.648 61.24C269.458 60.216 270.354 59.3413 271.336 58.616C273.896 56.5253 276.776 55.2453 279.976 54.776ZM282.088 57.848C280.296 57.5067 278.525 57.9333 276.776 59.128C275.24 60.1093 274.045 61.688 273.192 63.864C272.722 65.016 272.488 65.72 272.488 65.976C272.488 66.1467 274.024 66.104 277.096 65.848C277.394 65.848 277.65 65.8267 277.864 65.784C280.68 65.4853 282.621 64.696 283.688 63.416C284.157 62.8187 284.456 62.1147 284.584 61.304C284.797 59.768 284.242 58.7013 282.92 58.104C282.664 57.976 282.386 57.8907 282.088 57.848ZM306.277 54.84C309.136 54.4133 311.397 55.0107 313.061 56.632C313.445 56.9733 313.744 57.3787 313.957 57.848C314.341 58.5733 314.533 59.3627 314.533 60.216C314.533 62.52 313.552 63.9067 311.589 64.376C311.077 64.504 310.587 64.504 310.117 64.376C309.008 64.12 308.411 63.4373 308.325 62.328C308.325 61.688 308.453 61.0907 308.709 60.536C309.136 59.768 309.584 59.2773 310.053 59.064C310.181 58.9787 310.267 58.9147 310.309 58.872C310.309 58.7013 309.904 58.424 309.093 58.04C308.155 57.656 307.173 57.592 306.149 57.848C304.741 58.232 303.739 59.2133 303.141 60.792C302.971 61.3467 302.885 61.9227 302.885 62.52C302.971 63.2027 303.184 63.736 303.525 64.12C303.824 64.4613 304.635 64.7813 305.957 65.08C307.579 65.464 308.645 65.784 309.157 66.04C310.949 66.936 312.144 68.3227 312.741 70.2C312.955 70.8827 313.061 71.736 313.061 72.76C313.019 73.656 312.827 74.6587 312.485 75.768C312.144 76.792 311.589 77.8587 310.821 78.968C310.053 80.0347 309.179 80.9093 308.197 81.592C306.704 82.616 304.976 83.2773 303.013 83.576C301.819 83.7467 300.517 83.768 299.109 83.64C299.024 83.5973 298.939 83.576 298.853 83.576C296.336 83.064 294.608 82.1253 293.669 80.76C293.157 79.992 292.859 79.3733 292.773 78.904C292.688 78.648 292.645 78.2 292.645 77.56C292.603 76.6213 292.773 75.7893 293.157 75.064C293.755 73.784 294.779 73.016 296.229 72.76C296.656 72.7173 297.019 72.7173 297.317 72.76C298.64 72.9733 299.408 73.6773 299.621 74.872C299.835 76.152 299.365 77.3467 298.213 78.456C297.957 78.6693 297.701 78.84 297.445 78.968L296.997 79.224L297.381 79.48C298.107 80.0773 299.003 80.44 300.069 80.568C302.245 80.9093 304.08 80.504 305.573 79.352C306.512 78.584 307.173 77.5173 307.557 76.152C307.643 75.512 307.643 74.8933 307.557 74.296C307.259 73.3147 306.576 72.6107 305.509 72.184C304.997 72.0133 304.315 71.8427 303.461 71.672C302.395 71.4587 301.669 71.2667 301.285 71.096C299.451 70.4133 298.235 69.0267 297.637 66.936C297.552 66.552 297.509 65.9333 297.509 65.08C297.509 64.2267 297.552 63.5867 297.637 63.16C298.277 60.6427 299.408 58.6373 301.029 57.144C302.437 55.864 304.187 55.096 306.277 54.84ZM320.497 66.744C320.625 66.6587 323.142 66.616 328.049 66.616H335.409L335.665 66.808C335.793 67.0213 335.857 67.192 335.857 67.32L334.769 71.48L334.513 71.736C334.427 71.7787 331.953 71.8 327.089 71.8C322.097 71.8 319.537 71.6933 319.409 71.48C319.323 71.3947 319.281 71.2667 319.281 71.096L320.241 67.064C320.283 66.9787 320.369 66.872 320.497 66.744ZM396.647 39.352H408.871C412.156 39.608 414.887 40.312 417.063 41.464C419.409 42.7013 421.009 44.2373 421.863 46.072C422.759 47.864 422.887 49.9547 422.247 52.344C421.052 56.952 417.916 60.984 412.839 64.44C411.601 65.2507 410.3 65.9973 408.935 66.68C404.881 68.6853 400.721 69.752 396.455 69.88H395.175L394.855 69.688L394.535 69.496L393.831 71.672C392.593 75.4693 391.249 79.1387 389.799 82.68C389.457 83.576 389.031 84.3013 388.519 84.856C387.196 86.0933 385.66 86.776 383.911 86.904C383.569 86.904 383.292 86.84 383.079 86.712C382.951 86.6267 382.801 86.4773 382.631 86.264C382.545 86.008 382.716 85.3467 383.143 84.28C387.495 73.784 390.524 62.9893 392.231 51.896C392.913 47.032 393.212 44.5147 393.127 44.344C392.999 44.2587 392.145 44.3653 390.567 44.664C388.177 45.048 386.449 45.7093 385.383 46.648C384.7 47.3307 384.188 48.2053 383.847 49.272C383.633 49.8267 383.313 50.3813 382.887 50.936C381.351 52.2587 379.729 53.0053 378.023 53.176C377.468 53.176 377.105 52.984 376.935 52.6C376.807 52.344 376.849 51.8533 377.063 51.128C377.916 48.6533 379.537 46.4987 381.927 44.664C385.852 41.592 390.759 39.8213 396.647 39.352ZM403.559 44.344C401.852 44.1733 400.615 44.1733 399.847 44.344C399.847 45.0267 399.633 46.648 399.207 49.208C398.268 55.3947 396.988 61.2187 395.367 66.68L395.239 67.128L395.559 66.808C396.668 65.784 397.884 65.1653 399.207 64.952C399.377 64.9093 399.697 64.888 400.167 64.888C400.807 64.888 401.767 64.8027 403.047 64.632C407.996 63.8213 411.601 61.6027 413.863 57.976C414.503 56.952 414.972 55.864 415.271 54.712C415.911 52.5787 415.676 50.68 414.567 49.016C414.14 48.2907 413.457 47.5867 412.519 46.904C410.257 45.4533 407.271 44.6 403.559 44.344Z" fill="#C9B5AA"/>
<path d="M134.62 112.2C133.513 112.2 132.567 112 131.78 111.6C131.007 111.2 130.447 110.627 130.1 109.88C129.767 109.12 129.713 108.213 129.94 107.16L131.64 99.12H134.34L132.68 106.96C132.453 108.053 132.513 108.82 132.86 109.26C133.207 109.687 133.96 109.9 135.12 109.9C136.2 109.9 137.027 109.66 137.6 109.18C138.173 108.687 138.567 107.947 138.78 106.96L140.44 99.12H143.14L141.44 107.16C141.08 108.853 140.34 110.12 139.22 110.96C138.113 111.787 136.58 112.2 134.62 112.2ZM142.614 112L144.614 102.52H147.114L147.034 103.42C147.487 103.127 148.027 102.873 148.654 102.66C149.294 102.433 149.94 102.32 150.594 102.32C152.994 102.32 153.94 103.52 153.434 105.92L152.154 112H149.454L150.714 106.06C150.847 105.42 150.82 104.967 150.634 104.7C150.447 104.433 150.02 104.3 149.354 104.3C148.86 104.3 148.387 104.393 147.934 104.58C147.48 104.767 147.08 105 146.734 105.28L145.314 112H142.614ZM157.412 100.78L157.852 98.66H160.792L160.352 100.78H157.412ZM155.252 112L156.832 104.52H155.412L156.072 102.52H159.952L157.952 112H155.252ZM160.77 112L162.33 104.6H161.01L161.45 102.52H162.77L162.97 101.56C163.17 100.573 163.583 99.7667 164.21 99.14C164.85 98.5133 165.783 98.2 167.01 98.2C167.45 98.2 167.837 98.2333 168.17 98.3C168.503 98.3667 168.803 98.46 169.07 98.58L168.67 100.44C168.497 100.373 168.317 100.32 168.13 100.28C167.957 100.24 167.757 100.22 167.53 100.22C166.957 100.22 166.53 100.327 166.25 100.54C165.97 100.74 165.777 101.093 165.67 101.6L165.47 102.52H167.87L167.31 104.6H165.03L163.47 112H160.77ZM170.712 115.52C170.499 115.52 170.225 115.507 169.892 115.48C169.572 115.467 169.252 115.44 168.932 115.4C168.625 115.373 168.379 115.34 168.192 115.3L168.632 113.24C168.899 113.32 169.239 113.38 169.652 113.42C170.065 113.473 170.419 113.5 170.712 113.5C171.739 113.5 172.605 113.367 173.312 113.1C174.019 112.833 174.445 112.367 174.592 111.7L174.712 111.1C174.245 111.42 173.719 111.687 173.132 111.9C172.559 112.1 171.899 112.2 171.152 112.2C170.485 112.2 169.912 112.047 169.432 111.74C168.952 111.42 168.612 110.98 168.412 110.42C168.212 109.86 168.192 109.207 168.352 108.46L169.612 102.52H172.312L171.072 108.4C170.939 109.04 170.959 109.507 171.132 109.8C171.319 110.08 171.779 110.22 172.512 110.22C172.979 110.22 173.432 110.127 173.872 109.94C174.312 109.753 174.699 109.52 175.032 109.24L176.452 102.52H179.152L177.292 111.34C177.119 112.153 176.792 112.873 176.312 113.5C175.832 114.14 175.139 114.633 174.232 114.98C173.339 115.34 172.165 115.52 170.712 115.52ZM182.724 100.78L183.164 98.66H186.104L185.664 100.78H182.724ZM180.564 112L182.144 104.52H180.724L181.384 102.52H185.264L183.264 112H180.564ZM185.583 112L187.583 102.52H190.083L190.003 103.42C190.456 103.127 190.996 102.873 191.623 102.66C192.263 102.433 192.909 102.32 193.563 102.32C195.963 102.32 196.909 103.52 196.403 105.92L195.123 112H192.423L193.683 106.06C193.816 105.42 193.789 104.967 193.603 104.7C193.416 104.433 192.989 104.3 192.323 104.3C191.829 104.3 191.356 104.393 190.903 104.58C190.449 104.767 190.049 105 189.703 105.28L188.283 112H185.583ZM200.308 115.52C200.094 115.52 199.821 115.507 199.488 115.48C199.168 115.467 198.848 115.44 198.528 115.4C198.221 115.373 197.974 115.34 197.788 115.3L198.228 113.24C198.494 113.32 198.834 113.38 199.248 113.42C199.661 113.473 200.014 113.5 200.308 113.5C201.281 113.5 202.088 113.373 202.728 113.12C203.368 112.867 203.754 112.42 203.888 111.78L203.988 111.28C203.174 111.76 202.221 112 201.128 112C200.301 112 199.581 111.853 198.968 111.56C198.354 111.253 197.914 110.773 197.648 110.12C197.381 109.453 197.354 108.58 197.568 107.5C197.914 105.793 198.568 104.507 199.528 103.64C200.488 102.76 201.701 102.32 203.168 102.32C203.834 102.32 204.368 102.413 204.768 102.6C205.181 102.787 205.554 103.053 205.888 103.4L206.228 102.52H208.548L206.688 111.34C206.514 112.14 206.181 112.853 205.688 113.48C205.208 114.12 204.528 114.62 203.648 114.98C202.768 115.34 201.654 115.52 200.308 115.52ZM202.128 110.02C202.581 110.02 202.994 109.96 203.368 109.84C203.741 109.707 204.088 109.527 204.408 109.3L205.288 105.16C205.048 104.867 204.774 104.653 204.468 104.52C204.174 104.373 203.814 104.3 203.388 104.3C202.521 104.3 201.848 104.58 201.368 105.14C200.901 105.687 200.554 106.467 200.328 107.48C200.114 108.44 200.141 109.107 200.408 109.48C200.674 109.84 201.248 110.02 202.128 110.02ZM216.519 112.2C215.812 112.2 215.152 112.147 214.539 112.04C213.925 111.947 213.439 111.827 213.079 111.68L213.559 109.44C213.985 109.627 214.479 109.773 215.039 109.88C215.612 109.973 216.145 110.02 216.639 110.02C217.305 110.02 217.785 109.98 218.079 109.9C218.372 109.82 218.545 109.64 218.599 109.36C218.665 109.04 218.499 108.807 218.099 108.66C217.712 108.513 217.139 108.307 216.379 108.04C215.565 107.747 214.965 107.387 214.579 106.96C214.205 106.52 214.105 105.913 214.279 105.14C214.479 104.233 214.939 103.54 215.659 103.06C216.379 102.567 217.512 102.32 219.059 102.32C219.645 102.32 220.192 102.367 220.699 102.46C221.205 102.54 221.625 102.64 221.959 102.76L221.479 104.98C221.159 104.807 220.772 104.68 220.319 104.6C219.879 104.507 219.459 104.46 219.059 104.46C218.485 104.46 218.019 104.5 217.659 104.58C217.312 104.66 217.105 104.833 217.039 105.1C216.985 105.393 217.125 105.6 217.459 105.72C217.792 105.84 218.325 106.02 219.059 106.26C220.112 106.607 220.792 107.013 221.099 107.48C221.419 107.947 221.499 108.56 221.339 109.32C221.139 110.267 220.659 110.987 219.899 111.48C219.152 111.96 218.025 112.2 216.519 112.2ZM227.12 112.2C226.107 112.2 225.24 112.013 224.52 111.64C223.813 111.267 223.313 110.713 223.02 109.98C222.74 109.247 222.713 108.34 222.94 107.26C223.287 105.593 224 104.353 225.08 103.54C226.16 102.727 227.567 102.32 229.3 102.32C229.967 102.32 230.527 102.367 230.98 102.46C231.447 102.553 231.887 102.707 232.3 102.92L231.88 104.86C231.587 104.7 231.227 104.573 230.8 104.48C230.387 104.387 229.927 104.34 229.42 104.34C228.407 104.34 227.587 104.553 226.96 104.98C226.333 105.393 225.907 106.153 225.68 107.26C225.467 108.273 225.52 109.013 225.84 109.48C226.173 109.947 226.947 110.18 228.16 110.18C228.627 110.18 229.093 110.133 229.56 110.04C230.027 109.947 230.473 109.807 230.9 109.62L230.48 111.62C229.493 112.007 228.373 112.2 227.12 112.2ZM232.125 112L234.125 102.52H236.625L236.545 103.5C237.039 103.233 237.619 102.993 238.285 102.78C238.965 102.553 239.619 102.4 240.245 102.32L239.825 104.36C239.452 104.413 239.039 104.493 238.585 104.6C238.145 104.707 237.712 104.827 237.285 104.96C236.872 105.093 236.519 105.233 236.225 105.38L234.825 112H232.125ZM242.646 100.78L243.086 98.66H246.026L245.586 100.78H242.646ZM240.486 112L242.066 104.52H240.646L241.306 102.52H245.186L243.186 112H240.486ZM244.584 116.32L247.504 102.52H249.844L249.804 103.4C250.284 103.053 250.791 102.787 251.324 102.6C251.858 102.413 252.458 102.32 253.124 102.32C254.444 102.32 255.411 102.713 256.024 103.5C256.651 104.287 256.784 105.533 256.424 107.24C256.064 108.947 255.424 110.2 254.504 111C253.584 111.8 252.371 112.2 250.864 112.2C249.798 112.2 248.944 111.96 248.304 111.48L247.284 116.32H244.584ZM250.604 110.22C251.404 110.22 252.064 109.98 252.584 109.5C253.104 109.02 253.478 108.253 253.704 107.2C253.918 106.187 253.904 105.453 253.664 105C253.438 104.533 252.864 104.3 251.944 104.3C251.118 104.3 250.351 104.587 249.644 105.16L248.724 109.5C248.951 109.713 249.204 109.887 249.484 110.02C249.778 110.153 250.151 110.22 250.604 110.22ZM261.001 112.2C259.948 112.2 259.208 111.913 258.781 111.34C258.355 110.767 258.248 109.987 258.461 109L259.401 104.6H258.061L258.501 102.52H259.841L260.281 100.48L263.141 99.68L262.541 102.52H264.941L264.341 104.6H262.101L261.201 108.82C261.095 109.34 261.121 109.7 261.281 109.9C261.455 110.087 261.828 110.18 262.401 110.18C262.761 110.18 263.161 110.113 263.601 109.98L263.201 111.84C262.561 112.08 261.828 112.2 261.001 112.2ZM269.461 112L271.021 104.6H269.701L270.141 102.52H271.461L271.661 101.56C271.861 100.573 272.275 99.7667 272.901 99.14C273.541 98.5133 274.475 98.2 275.701 98.2C276.141 98.2 276.528 98.2333 276.861 98.3C277.195 98.3667 277.495 98.46 277.761 98.58L277.361 100.44C277.188 100.373 277.008 100.32 276.821 100.28C276.648 100.24 276.448 100.22 276.221 100.22C275.648 100.22 275.221 100.327 274.941 100.54C274.661 100.74 274.468 101.093 274.361 101.6L274.161 102.52H276.561L276.001 104.6H273.721L272.161 112H269.461ZM280.34 112.2C278.647 112.2 277.46 111.773 276.78 110.92C276.1 110.053 275.927 108.833 276.26 107.26C276.593 105.687 277.247 104.473 278.22 103.62C279.193 102.753 280.6 102.32 282.44 102.32C284.16 102.32 285.36 102.753 286.04 103.62C286.72 104.473 286.893 105.687 286.56 107.26C286.227 108.833 285.58 110.053 284.62 110.92C283.66 111.773 282.233 112.2 280.34 112.2ZM280.84 109.9C281.707 109.9 282.367 109.707 282.82 109.32C283.273 108.92 283.607 108.233 283.82 107.26C284.02 106.287 283.993 105.607 283.74 105.22C283.487 104.82 282.893 104.62 281.96 104.62C281.107 104.62 280.447 104.82 279.98 105.22C279.527 105.607 279.2 106.287 279 107.26C278.787 108.233 278.807 108.92 279.06 109.32C279.313 109.707 279.907 109.9 280.84 109.9ZM287.458 112L289.458 102.52H291.958L291.878 103.5C292.371 103.233 292.951 102.993 293.618 102.78C294.298 102.553 294.951 102.4 295.578 102.32L295.158 104.36C294.784 104.413 294.371 104.493 293.918 104.6C293.478 104.707 293.044 104.827 292.618 104.96C292.204 105.093 291.851 105.233 291.558 105.38L290.158 112H287.458ZM303.233 112.2C302.419 112.2 301.713 112.053 301.113 111.76C300.526 111.467 300.106 110.993 299.853 110.34C299.613 109.673 299.606 108.8 299.833 107.72C300.073 106.587 300.473 105.62 301.033 104.82C301.593 104.02 302.266 103.407 303.053 102.98C303.839 102.54 304.679 102.32 305.573 102.32C306.106 102.32 306.566 102.38 306.953 102.5C307.339 102.62 307.699 102.833 308.033 103.14L308.153 102.52H310.853L308.853 112H306.533L306.553 111.12C306.059 111.48 305.546 111.753 305.013 111.94C304.493 112.113 303.899 112.2 303.233 112.2ZM304.393 110.22C305.233 110.22 306.006 109.933 306.713 109.36L307.593 105.14C307.179 104.58 306.599 104.3 305.853 104.3C304.159 104.3 303.066 105.44 302.573 107.72C302.359 108.693 302.393 109.353 302.673 109.7C302.966 110.047 303.539 110.22 304.393 110.22ZM313.709 112.2C311.949 112.2 311.262 111.307 311.649 109.52L313.989 98.52H316.689L314.389 109.3C314.322 109.633 314.329 109.867 314.409 110C314.502 110.12 314.696 110.18 314.989 110.18C315.336 110.18 315.656 110.133 315.949 110.04L315.569 111.9C315.009 112.1 314.389 112.2 313.709 112.2ZM319.158 112.2C317.398 112.2 316.711 111.307 317.098 109.52L319.438 98.52H322.138L319.838 109.3C319.771 109.633 319.778 109.867 319.858 110C319.951 110.12 320.145 110.18 320.438 110.18C320.785 110.18 321.105 110.133 321.398 110.04L321.018 111.9C320.458 112.1 319.838 112.2 319.158 112.2ZM331.61 112.2C329.916 112.2 328.73 111.773 328.05 110.92C327.37 110.053 327.196 108.833 327.53 107.26C327.863 105.687 328.516 104.473 329.49 103.62C330.463 102.753 331.87 102.32 333.71 102.32C335.43 102.32 336.63 102.753 337.31 103.62C337.99 104.473 338.163 105.687 337.83 107.26C337.496 108.833 336.85 110.053 335.89 110.92C334.93 111.773 333.503 112.2 331.61 112.2ZM332.11 109.9C332.976 109.9 333.636 109.707 334.09 109.32C334.543 108.92 334.876 108.233 335.09 107.26C335.29 106.287 335.263 105.607 335.01 105.22C334.756 104.82 334.163 104.62 333.23 104.62C332.376 104.62 331.716 104.82 331.25 105.22C330.796 105.607 330.47 106.287 330.27 107.26C330.056 108.233 330.076 108.92 330.33 109.32C330.583 109.707 331.176 109.9 332.11 109.9ZM342.427 112.2C341.374 112.2 340.634 111.913 340.207 111.34C339.78 110.767 339.674 109.987 339.887 109L340.827 104.6H339.487L339.927 102.52H341.267L341.707 100.48L344.567 99.68L343.967 102.52H346.367L345.767 104.6H343.527L342.627 108.82C342.52 109.34 342.547 109.7 342.707 109.9C342.88 110.087 343.254 110.18 343.827 110.18C344.187 110.18 344.587 110.113 345.027 109.98L344.627 111.84C343.987 112.08 343.254 112.2 342.427 112.2ZM345.973 112L348.833 98.52H351.533L350.513 103.32C350.966 103.027 351.486 102.787 352.073 102.6C352.673 102.413 353.299 102.32 353.953 102.32C355.126 102.32 355.953 102.627 356.433 103.24C356.926 103.84 357.046 104.733 356.793 105.92L355.513 112H352.813L354.073 106.06C354.206 105.42 354.173 104.967 353.973 104.7C353.786 104.433 353.326 104.3 352.593 104.3C352.179 104.3 351.746 104.393 351.293 104.58C350.839 104.767 350.439 105 350.093 105.28L348.673 112H345.973ZM362.298 112.2C361.272 112.2 360.392 112.02 359.658 111.66C358.938 111.3 358.425 110.753 358.118 110.02C357.825 109.273 357.792 108.347 358.018 107.24C358.232 106.227 358.565 105.353 359.018 104.62C359.472 103.887 360.092 103.32 360.878 102.92C361.678 102.52 362.678 102.32 363.878 102.32C365.345 102.32 366.385 102.707 366.998 103.48C367.625 104.24 367.805 105.24 367.538 106.48L367.178 108.2H360.318C360.305 108.96 360.505 109.48 360.918 109.76C361.345 110.04 362.138 110.18 363.298 110.18C363.805 110.18 364.332 110.133 364.878 110.04C365.425 109.947 365.898 109.827 366.298 109.68L365.898 111.6C365.418 111.8 364.872 111.947 364.258 112.04C363.645 112.147 362.992 112.2 362.298 112.2ZM360.678 106.54H365.178L365.278 106.02C365.398 105.473 365.332 105.047 365.078 104.74C364.825 104.42 364.318 104.26 363.558 104.26C362.665 104.26 362.005 104.44 361.578 104.8C361.152 105.16 360.852 105.74 360.678 106.54ZM368.278 112L370.278 102.52H372.778L372.698 103.5C373.191 103.233 373.771 102.993 374.438 102.78C375.118 102.553 375.771 102.4 376.398 102.32L375.978 104.36C375.604 104.413 375.191 104.493 374.738 104.6C374.298 104.707 373.864 104.827 373.438 104.96C373.024 105.093 372.671 105.233 372.378 105.38L370.978 112H368.278ZM383.433 112.2C382.726 112.2 382.066 112.147 381.453 112.04C380.839 111.947 380.353 111.827 379.993 111.68L380.473 109.44C380.899 109.627 381.393 109.773 381.953 109.88C382.526 109.973 383.059 110.02 383.553 110.02C384.219 110.02 384.699 109.98 384.993 109.9C385.286 109.82 385.459 109.64 385.513 109.36C385.579 109.04 385.413 108.807 385.013 108.66C384.626 108.513 384.053 108.307 383.293 108.04C382.479 107.747 381.879 107.387 381.493 106.96C381.119 106.52 381.019 105.913 381.193 105.14C381.393 104.233 381.853 103.54 382.573 103.06C383.293 102.567 384.426 102.32 385.973 102.32C386.559 102.32 387.106 102.367 387.613 102.46C388.119 102.54 388.539 102.64 388.873 102.76L388.393 104.98C388.073 104.807 387.686 104.68 387.233 104.6C386.793 104.507 386.373 104.46 385.973 104.46C385.399 104.46 384.933 104.5 384.573 104.58C384.226 104.66 384.019 104.833 383.953 105.1C383.899 105.393 384.039 105.6 384.373 105.72C384.706 105.84 385.239 106.02 385.973 106.26C387.026 106.607 387.706 107.013 388.013 107.48C388.333 107.947 388.413 108.56 388.253 109.32C388.053 110.267 387.573 110.987 386.813 111.48C386.066 111.96 384.939 112.2 383.433 112.2ZM394.034 112.2C393.021 112.2 392.154 112.013 391.434 111.64C390.727 111.267 390.227 110.713 389.934 109.98C389.654 109.247 389.627 108.34 389.854 107.26C390.201 105.593 390.914 104.353 391.994 103.54C393.074 102.727 394.481 102.32 396.214 102.32C396.881 102.32 397.441 102.367 397.894 102.46C398.361 102.553 398.801 102.707 399.214 102.92L398.794 104.86C398.501 104.7 398.141 104.573 397.714 104.48C397.301 104.387 396.841 104.34 396.334 104.34C395.321 104.34 394.501 104.553 393.874 104.98C393.247 105.393 392.821 106.153 392.594 107.26C392.381 108.273 392.434 109.013 392.754 109.48C393.087 109.947 393.861 110.18 395.074 110.18C395.541 110.18 396.007 110.133 396.474 110.04C396.941 109.947 397.387 109.807 397.814 109.62L397.394 111.62C396.407 112.007 395.287 112.2 394.034 112.2ZM399.04 112L401.04 102.52H403.54L403.46 103.5C403.953 103.233 404.533 102.993 405.2 102.78C405.88 102.553 406.533 102.4 407.16 102.32L406.74 104.36C406.366 104.413 405.953 104.493 405.5 104.6C405.06 104.707 404.626 104.827 404.2 104.96C403.786 105.093 403.433 105.233 403.14 105.38L401.74 112H399.04ZM409.56 100.78L410 98.66H412.94L412.5 100.78H409.56ZM407.4 112L408.98 104.52H407.56L408.22 102.52H412.1L410.1 112H407.4ZM411.498 116.32L414.418 102.52H416.758L416.718 103.4C417.198 103.053 417.705 102.787 418.238 102.6C418.772 102.413 419.372 102.32 420.038 102.32C421.358 102.32 422.325 102.713 422.938 103.5C423.565 104.287 423.698 105.533 423.338 107.24C422.978 108.947 422.338 110.2 421.418 111C420.498 111.8 419.285 112.2 417.778 112.2C416.712 112.2 415.858 111.96 415.218 111.48L414.198 116.32H411.498ZM417.518 110.22C418.318 110.22 418.978 109.98 419.498 109.5C420.018 109.02 420.392 108.253 420.618 107.2C420.832 106.187 420.818 105.453 420.578 105C420.352 104.533 419.778 104.3 418.858 104.3C418.032 104.3 417.265 104.587 416.558 105.16L415.638 109.5C415.865 109.713 416.118 109.887 416.398 110.02C416.692 110.153 417.065 110.22 417.518 110.22ZM427.915 112.2C426.862 112.2 426.122 111.913 425.695 111.34C425.269 110.767 425.162 109.987 425.375 109L426.315 104.6H424.975L425.415 102.52H426.755L427.195 100.48L430.055 99.68L429.455 102.52H431.855L431.255 104.6H429.015L428.115 108.82C428.009 109.34 428.035 109.7 428.195 109.9C428.369 110.087 428.742 110.18 429.315 110.18C429.675 110.18 430.075 110.113 430.515 109.98L430.115 111.84C429.475 112.08 428.742 112.2 427.915 112.2ZM434.761 112.2C434.054 112.2 433.394 112.147 432.781 112.04C432.168 111.947 431.681 111.827 431.321 111.68L431.801 109.44C432.228 109.627 432.721 109.773 433.281 109.88C433.854 109.973 434.388 110.02 434.881 110.02C435.548 110.02 436.028 109.98 436.321 109.9C436.614 109.82 436.788 109.64 436.841 109.36C436.908 109.04 436.741 108.807 436.341 108.66C435.954 108.513 435.381 108.307 434.621 108.04C433.808 107.747 433.208 107.387 432.821 106.96C432.448 106.52 432.348 105.913 432.521 105.14C432.721 104.233 433.181 103.54 433.901 103.06C434.621 102.567 435.754 102.32 437.301 102.32C437.888 102.32 438.434 102.367 438.941 102.46C439.448 102.54 439.868 102.64 440.201 102.76L439.721 104.98C439.401 104.807 439.014 104.68 438.561 104.6C438.121 104.507 437.701 104.46 437.301 104.46C436.728 104.46 436.261 104.5 435.901 104.58C435.554 104.66 435.348 104.833 435.281 105.1C435.228 105.393 435.368 105.6 435.701 105.72C436.034 105.84 436.568 106.02 437.301 106.26C438.354 106.607 439.034 107.013 439.341 107.48C439.661 107.947 439.741 108.56 439.581 109.32C439.381 110.267 438.901 110.987 438.141 111.48C437.394 111.96 436.268 112.2 434.761 112.2Z" fill="#FFF2EB"/>
<path d="M47.8179 79.256H29.5779V43.448H47.2899V48.344H34.8099V58.328H46.6179V63.224H34.8099V74.312H47.8179V79.256Z" fill="#816D63"/>
</svg>
