<svg width="156" height="64" viewBox="0 0 156 64" fill="none" xmlns="http://www.w3.org/2000/svg">
<mask id="path-1-outside-1_37_23" maskUnits="userSpaceOnUse" x="-4" y="9" width="73" height="42" fill="black">
<rect fill="white" x="-4" y="9" width="73" height="42"/>
<path d="M7.06675 39H0.645417L2.62942 13.9973H12.6347L14.5121 22.3813L15.3654 26.6267L16.1761 22.4027L17.8401 13.9973H26.7574L28.5921 39H21.9574L20.8694 24.3013L20.6134 18.8827L17.3494 36.504H11.7814L7.85608 18.8827L7.72808 24.3013L7.06675 39ZM36.3059 39.448C34.969 39.448 33.6179 39.2276 32.2526 38.7867C30.8872 38.3316 30.0126 37.8907 29.6286 37.464L30.1832 34.0293C30.6668 34.4987 31.4704 34.904 32.5939 35.2453C33.7317 35.5867 34.8908 35.7573 36.0712 35.7573C36.9246 35.7573 37.5077 35.6507 37.8206 35.4373C38.1477 35.224 38.3112 34.9253 38.3112 34.5413C38.3112 34.1716 38.0268 33.8444 37.4579 33.56C36.889 33.2613 35.9646 32.92 34.6846 32.536C31.3708 31.5404 29.7139 29.4782 29.7139 26.3493C29.7139 25.0693 30.0837 23.9742 30.8232 23.064C31.5628 22.1396 32.5086 21.4711 33.6606 21.0587C34.8126 20.6462 36.0997 20.44 37.5219 20.44C39.9539 20.44 41.7459 20.888 42.8979 21.784C43.1539 22.0258 43.2819 22.1467 43.2819 22.1467L42.3433 25.1973C41.4046 24.2729 40.1104 23.8107 38.4606 23.8107C37.1095 23.8107 36.4339 24.2089 36.4339 25.0053C36.4339 25.2329 36.4837 25.4249 36.5833 25.5813C36.6828 25.7236 36.8464 25.8516 37.0739 25.9653C37.3157 26.0649 37.5504 26.1502 37.7779 26.2213C38.0055 26.2782 38.3255 26.3636 38.7379 26.4773C39.1504 26.5769 39.5059 26.6693 39.8046 26.7547C41.4686 27.3093 42.6775 28.0916 43.4312 29.1013C44.185 30.1111 44.5619 31.3698 44.5619 32.8773C44.5619 37.2578 41.8099 39.448 36.3059 39.448ZM54.5961 46.5307C53.4867 46.5307 52.2352 46.2747 50.8414 45.7627C49.4476 45.2649 48.5445 44.7884 48.1321 44.3333L49.4761 41.4107C49.8316 41.6809 50.4076 41.9298 51.2041 42.1573C52.0005 42.3849 52.6832 42.4987 53.2521 42.4987C53.821 42.4987 54.3116 42.4204 54.7241 42.264C55.1507 42.1218 55.4779 41.9369 55.7054 41.7093C55.933 41.496 56.1179 41.2258 56.2601 40.8987C56.4023 40.5858 56.4876 40.3013 56.5161 40.0453C56.5587 39.7893 56.5872 39.5049 56.6014 39.192V37.3787C55.3925 38.6302 53.9205 39.256 52.1854 39.256C49.8388 39.256 48.1179 38.4524 47.0227 36.8453C45.9276 35.2382 45.3801 33.0053 45.3801 30.1467C45.3801 28.8098 45.5294 27.5796 45.8281 26.456C46.1267 25.3182 46.5605 24.3227 47.1294 23.4693C47.7125 22.6018 48.4663 21.9262 49.3907 21.4427C50.3152 20.9449 51.3605 20.696 52.5268 20.696C54.2903 20.696 55.8192 21.0871 57.1134 21.8693L57.4761 20.8667H60.7401L64.7507 21.0587V23.064L63.4707 23.96V38.2107C63.4707 43.7573 60.5125 46.5307 54.5961 46.5307ZM55.2787 35.3733C55.7054 35.3733 56.1463 35.2524 56.6014 35.0107V23.768C56.2601 23.6969 55.9472 23.6613 55.6628 23.6613C53.7712 23.6756 52.8183 25.1333 52.8041 28.0347V31.3413C52.8041 32.2516 52.925 33.0338 53.1667 33.688C53.5934 34.8116 54.2974 35.3733 55.2787 35.3733Z"/>
</mask>
<path d="M7.06675 39H0.645417L2.62942 13.9973H12.6347L14.5121 22.3813L15.3654 26.6267L16.1761 22.4027L17.8401 13.9973H26.7574L28.5921 39H21.9574L20.8694 24.3013L20.6134 18.8827L17.3494 36.504H11.7814L7.85608 18.8827L7.72808 24.3013L7.06675 39ZM36.3059 39.448C34.969 39.448 33.6179 39.2276 32.2526 38.7867C30.8872 38.3316 30.0126 37.8907 29.6286 37.464L30.1832 34.0293C30.6668 34.4987 31.4704 34.904 32.5939 35.2453C33.7317 35.5867 34.8908 35.7573 36.0712 35.7573C36.9246 35.7573 37.5077 35.6507 37.8206 35.4373C38.1477 35.224 38.3112 34.9253 38.3112 34.5413C38.3112 34.1716 38.0268 33.8444 37.4579 33.56C36.889 33.2613 35.9646 32.92 34.6846 32.536C31.3708 31.5404 29.7139 29.4782 29.7139 26.3493C29.7139 25.0693 30.0837 23.9742 30.8232 23.064C31.5628 22.1396 32.5086 21.4711 33.6606 21.0587C34.8126 20.6462 36.0997 20.44 37.5219 20.44C39.9539 20.44 41.7459 20.888 42.8979 21.784C43.1539 22.0258 43.2819 22.1467 43.2819 22.1467L42.3433 25.1973C41.4046 24.2729 40.1104 23.8107 38.4606 23.8107C37.1095 23.8107 36.4339 24.2089 36.4339 25.0053C36.4339 25.2329 36.4837 25.4249 36.5833 25.5813C36.6828 25.7236 36.8464 25.8516 37.0739 25.9653C37.3157 26.0649 37.5504 26.1502 37.7779 26.2213C38.0055 26.2782 38.3255 26.3636 38.7379 26.4773C39.1504 26.5769 39.5059 26.6693 39.8046 26.7547C41.4686 27.3093 42.6775 28.0916 43.4312 29.1013C44.185 30.1111 44.5619 31.3698 44.5619 32.8773C44.5619 37.2578 41.8099 39.448 36.3059 39.448ZM54.5961 46.5307C53.4867 46.5307 52.2352 46.2747 50.8414 45.7627C49.4476 45.2649 48.5445 44.7884 48.1321 44.3333L49.4761 41.4107C49.8316 41.6809 50.4076 41.9298 51.2041 42.1573C52.0005 42.3849 52.6832 42.4987 53.2521 42.4987C53.821 42.4987 54.3116 42.4204 54.7241 42.264C55.1507 42.1218 55.4779 41.9369 55.7054 41.7093C55.933 41.496 56.1179 41.2258 56.2601 40.8987C56.4023 40.5858 56.4876 40.3013 56.5161 40.0453C56.5587 39.7893 56.5872 39.5049 56.6014 39.192V37.3787C55.3925 38.6302 53.9205 39.256 52.1854 39.256C49.8388 39.256 48.1179 38.4524 47.0227 36.8453C45.9276 35.2382 45.3801 33.0053 45.3801 30.1467C45.3801 28.8098 45.5294 27.5796 45.8281 26.456C46.1267 25.3182 46.5605 24.3227 47.1294 23.4693C47.7125 22.6018 48.4663 21.9262 49.3907 21.4427C50.3152 20.9449 51.3605 20.696 52.5268 20.696C54.2903 20.696 55.8192 21.0871 57.1134 21.8693L57.4761 20.8667H60.7401L64.7507 21.0587V23.064L63.4707 23.96V38.2107C63.4707 43.7573 60.5125 46.5307 54.5961 46.5307ZM55.2787 35.3733C55.7054 35.3733 56.1463 35.2524 56.6014 35.0107V23.768C56.2601 23.6969 55.9472 23.6613 55.6628 23.6613C53.7712 23.6756 52.8183 25.1333 52.8041 28.0347V31.3413C52.8041 32.2516 52.925 33.0338 53.1667 33.688C53.5934 34.8116 54.2974 35.3733 55.2787 35.3733Z" fill="#00FF6B"/>
<path d="M7.06675 39V43H10.8908L11.0627 39.1798L7.06675 39ZM0.645417 39L-3.34205 38.6836L-3.68456 43H0.645417V39ZM2.62942 13.9973V9.99733H-1.06575L-1.35805 13.6809L2.62942 13.9973ZM12.6347 13.9973L16.5381 13.1233L15.8381 9.99733H12.6347V13.9973ZM14.5121 22.3813L18.4336 21.5931L18.425 21.5501L18.4154 21.5073L14.5121 22.3813ZM15.3654 26.6267L11.4439 27.4149L19.2937 27.3806L15.3654 26.6267ZM16.1761 22.4027L12.2522 21.6259L12.25 21.6373L12.2478 21.6487L16.1761 22.4027ZM17.8401 13.9973V9.99733H14.5543L13.9162 13.2205L17.8401 13.9973ZM26.7574 13.9973L30.7467 13.7046L30.4747 9.99733H26.7574V13.9973ZM28.5921 39V43H32.8964L32.5814 38.7073L28.5921 39ZM21.9574 39L17.9683 39.2953L18.2426 43H21.9574V39ZM20.8694 24.3013L16.8739 24.4901L16.8764 24.5434L16.8803 24.5966L20.8694 24.3013ZM20.6134 18.8827L24.609 18.6939L16.6803 18.1541L20.6134 18.8827ZM17.3494 36.504V40.504H20.6765L21.2825 37.2325L17.3494 36.504ZM11.7814 36.504L7.87711 37.3737L8.57442 40.504H11.7814V36.504ZM7.85608 18.8827L11.7604 18.0129L3.8572 18.7882L7.85608 18.8827ZM7.72808 24.3013L11.724 24.4811L11.726 24.4385L11.727 24.3958L7.72808 24.3013ZM7.06675 35H0.645417V43H7.06675V35ZM4.63288 39.3164L6.61688 14.3137L-1.35805 13.6809L-3.34205 38.6836L4.63288 39.3164ZM2.62942 17.9973H12.6347V9.99733H2.62942V17.9973ZM8.73141 14.8714L10.6087 23.2554L18.4154 21.5073L16.5381 13.1233L8.73141 14.8714ZM10.5905 23.1696L11.4439 27.4149L19.287 25.8384L18.4336 21.5931L10.5905 23.1696ZM19.2937 27.3806L20.1044 23.1566L12.2478 21.6487L11.4371 25.8727L19.2937 27.3806ZM20.0999 23.1795L21.7639 14.7741L13.9162 13.2205L12.2522 21.6259L20.0999 23.1795ZM17.8401 17.9973H26.7574V9.99733H17.8401V17.9973ZM22.7681 14.2901L24.6028 39.2927L32.5814 38.7073L30.7467 13.7046L22.7681 14.2901ZM28.5921 35H21.9574V43H28.5921V35ZM25.9465 38.7047L24.8585 24.0061L16.8803 24.5966L17.9683 39.2953L25.9465 38.7047ZM24.865 24.1126L24.609 18.6939L16.6179 19.0714L16.8739 24.4901L24.865 24.1126ZM16.6803 18.1541L13.4163 35.7755L21.2825 37.2325L24.5465 19.6112L16.6803 18.1541ZM17.3494 32.504H11.7814V40.504H17.3494V32.504ZM15.6857 35.6343L11.7604 18.0129L3.95178 19.7524L7.87711 37.3737L15.6857 35.6343ZM3.8572 18.7882L3.7292 24.2069L11.727 24.3958L11.855 18.9771L3.8572 18.7882ZM3.73213 24.1215L3.07079 38.8202L11.0627 39.1798L11.724 24.4811L3.73213 24.1215ZM32.2526 38.7867L30.9877 42.5814L31.0055 42.5873L31.0234 42.5931L32.2526 38.7867ZM29.6286 37.464L25.6797 36.8263L25.3745 38.7166L26.6554 40.1399L29.6286 37.464ZM30.1832 34.0293L32.9692 31.159L27.4587 25.8106L26.2344 33.3916L30.1832 34.0293ZM32.5939 35.2453L31.4312 39.0726L31.4445 39.0766L32.5939 35.2453ZM37.8206 35.4373L35.6355 32.0869L35.6011 32.1093L35.5672 32.1324L37.8206 35.4373ZM37.4579 33.56L35.5986 37.1016L35.6336 37.12L35.6691 37.1377L37.4579 33.56ZM34.6846 32.536L33.5337 36.3669L33.5352 36.3673L34.6846 32.536ZM30.8232 23.064L33.9277 25.5864L33.9373 25.5746L33.9467 25.5628L30.8232 23.064ZM33.6606 21.0587L32.3123 17.2928L32.3123 17.2928L33.6606 21.0587ZM42.8979 21.784L45.6444 18.8759L45.505 18.7443L45.3537 18.6266L42.8979 21.784ZM43.2819 22.1467L47.105 23.323L47.8364 20.9461L46.0284 19.2386L43.2819 22.1467ZM42.3433 25.1973L39.5365 28.0473L44.2293 32.669L46.1664 26.3737L42.3433 25.1973ZM36.5833 25.5813L33.2086 27.7288L33.2559 27.8031L33.3063 27.8752L36.5833 25.5813ZM37.0739 25.9653L35.2851 29.543L35.4158 29.6084L35.5509 29.664L37.0739 25.9653ZM37.7779 26.2213L36.5848 30.0393L36.6954 30.0738L36.8078 30.1019L37.7779 26.2213ZM38.7379 26.4773L37.6742 30.3333L37.7365 30.3505L37.7994 30.3657L38.7379 26.4773ZM39.8046 26.7547L41.0695 22.9599L40.987 22.9324L40.9035 22.9086L39.8046 26.7547ZM36.3059 35.448C35.4158 35.448 34.479 35.3022 33.4818 34.9802L31.0234 42.5931C32.7568 43.1529 34.5222 43.448 36.3059 43.448V35.448ZM33.5175 34.9919C32.9418 34.8 32.5778 34.646 32.373 34.5428C32.2743 34.493 32.2511 34.4742 32.2786 34.4932C32.2997 34.5077 32.4325 34.6 32.6018 34.7881L26.6554 40.1399C27.3338 40.8936 28.1597 41.3779 28.7721 41.6865C29.442 42.0242 30.1981 42.3182 30.9877 42.5814L33.5175 34.9919ZM33.5774 38.1017L34.1321 34.667L26.2344 33.3916L25.6797 36.8263L33.5774 38.1017ZM27.3973 36.8997C28.561 38.0291 30.0884 38.6647 31.4312 39.0726L33.7566 31.4181C33.3524 31.2952 33.0957 31.1874 32.9501 31.114C32.7967 31.0366 32.8413 31.0349 32.9692 31.159L27.3973 36.8997ZM31.4445 39.0766C32.9528 39.5291 34.499 39.7573 36.0712 39.7573V31.7573C35.2826 31.7573 34.5106 31.6442 33.7433 31.414L31.4445 39.0766ZM36.0712 39.7573C36.6439 39.7573 37.261 39.7231 37.8683 39.612C38.4319 39.509 39.269 39.2911 40.0739 38.7422L35.5672 32.1324C35.8318 31.952 36.0588 31.8572 36.1899 31.8104C36.3239 31.7625 36.4113 31.7458 36.4288 31.7426C36.4531 31.7382 36.3519 31.7573 36.0712 31.7573V39.7573ZM40.0057 38.7878C41.4417 37.8512 42.3112 36.3046 42.3112 34.5413H34.3112C34.3112 34.1489 34.4 33.6437 34.6802 33.1321C34.9588 32.6233 35.3287 32.287 35.6355 32.0869L40.0057 38.7878ZM42.3112 34.5413C42.3112 31.7773 40.1463 30.4321 39.2468 29.9823L35.6691 37.1377C35.6606 37.1335 35.5974 37.1016 35.5012 37.0326C35.4059 36.9643 35.2502 36.8397 35.0795 36.6434C34.7039 36.2115 34.3112 35.4832 34.3112 34.5413H42.3112ZM39.3173 30.0184C38.3895 29.5313 37.1558 29.1013 35.834 28.7047L33.5352 36.3673C34.7733 36.7387 35.3885 36.9913 35.5986 37.1016L39.3173 30.0184ZM35.8355 28.7051C34.7171 28.3692 34.2615 27.9696 34.0748 27.7373C33.917 27.5409 33.7139 27.1761 33.7139 26.3493H25.7139C25.7139 28.6514 26.3393 30.8822 27.8384 32.748C29.3086 34.5779 31.3382 35.7073 33.5337 36.3669L35.8355 28.7051ZM33.7139 26.3493C33.7139 25.8983 33.8216 25.7169 33.9277 25.5864L27.7188 20.5416C26.3458 22.2315 25.7139 24.2404 25.7139 26.3493H33.7139ZM33.9467 25.5628C34.2073 25.2371 34.5299 24.9961 35.0089 24.8246L32.3123 17.2928C30.4872 17.9462 28.9183 19.042 27.6998 20.5652L33.9467 25.5628ZM35.0089 24.8246C35.6643 24.5899 36.486 24.44 37.5219 24.44V16.44C35.7133 16.44 33.9609 16.7025 32.3123 17.2928L35.0089 24.8246ZM37.5219 24.44C39.6063 24.44 40.3251 24.8504 40.4422 24.9414L45.3537 18.6266C43.1667 16.9256 40.3016 16.44 37.5219 16.44V24.44ZM40.1514 24.6921C40.2348 24.7708 40.42 24.9457 40.4394 24.9641C40.4714 24.9943 40.4954 25.0169 40.5114 25.0321C40.5163 25.0367 40.5285 25.0482 40.5294 25.0491C40.5303 25.0498 40.5315 25.051 40.532 25.0515C40.5339 25.0533 40.5323 25.0518 40.5339 25.0533C40.5343 25.0537 40.5349 25.0542 40.535 25.0544C40.5352 25.0545 40.5352 25.0546 40.5353 25.0546C40.5354 25.0547 40.5354 25.0547 40.5354 25.0547C40.5354 25.0547 40.5354 25.0547 40.5354 25.0547C40.5354 25.0547 40.5354 25.0547 40.5354 25.0547C40.5354 25.0547 40.5354 25.0547 43.2819 22.1467C46.0284 19.2386 46.0284 19.2386 46.0284 19.2386C46.0284 19.2386 46.0284 19.2386 46.0284 19.2386C46.0284 19.2386 46.0284 19.2386 46.0284 19.2386C46.0284 19.2386 46.0283 19.2386 46.0283 19.2385C46.0283 19.2385 46.0281 19.2384 46.028 19.2383C46.0278 19.238 46.0279 19.2381 46.0276 19.2378C46.0275 19.2378 46.0275 19.2378 46.0275 19.2378C46.0275 19.2377 46.0274 19.2377 46.0274 19.2377C46.0274 19.2377 46.0273 19.2376 46.0273 19.2375C46.027 19.2373 46.0272 19.2375 46.0269 19.2372C46.0247 19.2351 46.0256 19.236 46.0224 19.233C46.0164 19.2273 46.0144 19.2254 46.0044 19.216C45.9739 19.1871 45.979 19.1919 45.9324 19.148C45.7644 18.9892 45.8765 19.0951 45.6444 18.8759L40.1514 24.6921ZM39.4588 20.9703L38.5201 24.021L46.1664 26.3737L47.105 23.323L39.4588 20.9703ZM45.15 22.3474C43.2853 20.511 40.8816 19.8107 38.4606 19.8107V27.8107C39.3391 27.8107 39.5239 28.0348 39.5365 28.0473L45.15 22.3474ZM38.4606 19.8107C37.5229 19.8107 36.161 19.9256 34.9093 20.6635C33.3282 21.5955 32.4339 23.2183 32.4339 25.0053H40.4339C40.4339 25.3844 40.3488 25.9099 40.0424 26.4516C39.7345 26.9962 39.32 27.35 38.9718 27.5552C38.3957 27.8948 38.0471 27.8107 38.4606 27.8107V19.8107ZM32.4339 25.0053C32.4339 25.8203 32.6166 26.7986 33.2086 27.7288L39.9579 23.4338C40.3508 24.0512 40.4339 24.6455 40.4339 25.0053H32.4339ZM33.3063 27.8752C33.924 28.7576 34.7198 29.2604 35.2851 29.543L38.8628 22.3876C38.9729 22.4427 39.4416 22.6896 39.8602 23.2875L33.3063 27.8752ZM35.5509 29.664C35.8906 29.8039 36.2355 29.9301 36.5848 30.0393L38.971 22.4034C38.8652 22.3703 38.7407 22.3258 38.5969 22.2666L35.5509 29.664ZM36.8078 30.1019C36.9884 30.1471 37.2721 30.2224 37.6742 30.3333L39.8016 22.6214C39.3789 22.5047 39.0225 22.4094 38.7481 22.3408L36.8078 30.1019ZM37.7994 30.3657C38.176 30.4566 38.4754 30.5349 38.7057 30.6008L40.9035 22.9086C40.5365 22.8037 40.1247 22.6972 39.6765 22.589L37.7994 30.3657ZM38.5397 30.5494C39.7233 30.9439 40.1182 31.3499 40.2258 31.4941L46.6367 26.7086C45.2368 24.8333 43.2138 23.6747 41.0695 22.9599L38.5397 30.5494ZM40.2258 31.4941C40.3684 31.6851 40.5619 32.0579 40.5619 32.8773H48.5619C48.5619 30.6816 48.0016 28.5371 46.6367 26.7086L40.2258 31.4941ZM40.5619 32.8773C40.5619 34.1775 40.199 34.5228 40.007 34.6756C39.6408 34.967 38.6342 35.448 36.3059 35.448V43.448C39.4817 43.448 42.603 42.8339 44.9888 40.9351C47.5489 38.8976 48.5619 35.9576 48.5619 32.8773H40.5619ZM50.8414 45.7627L52.2207 42.008L52.2038 42.0018L52.1868 41.9957L50.8414 45.7627ZM48.1321 44.3333L44.4979 42.6621L43.3943 45.0621L45.1681 47.0194L48.1321 44.3333ZM49.4761 41.4107L51.8964 38.226L47.9256 35.2082L45.8419 39.7395L49.4761 41.4107ZM51.2041 42.1573L50.1052 46.0034L50.1052 46.0034L51.2041 42.1573ZM54.7241 42.264L53.4592 38.4693L53.3818 38.4951L53.3055 38.524L54.7241 42.264ZM55.7054 41.7093L52.9697 38.7912L52.9226 38.8353L52.877 38.8809L55.7054 41.7093ZM56.2601 40.8987L52.6186 39.2435L52.605 39.2735L52.5918 39.3038L56.2601 40.8987ZM56.5161 40.0453L52.5705 39.3877L52.5526 39.4953L52.5405 39.6036L56.5161 40.0453ZM56.6014 39.192L60.5973 39.3736L60.6014 39.2829V39.192H56.6014ZM56.6014 37.3787H60.6014V27.4799L53.7244 34.5997L56.6014 37.3787ZM47.0227 36.8453L43.7172 39.0978L43.7172 39.0978L47.0227 36.8453ZM45.8281 26.456L49.6939 27.4836L49.697 27.4716L45.8281 26.456ZM47.1294 23.4693L43.8096 21.238L43.8054 21.2443L43.8012 21.2505L47.1294 23.4693ZM49.3907 21.4427L51.2447 24.9871L51.266 24.9759L51.2871 24.9646L49.3907 21.4427ZM57.1134 21.8693L55.0444 25.2926L59.2167 27.8144L60.8749 23.2299L57.1134 21.8693ZM57.4761 20.8667V16.8667H54.6693L53.7146 19.5061L57.4761 20.8667ZM60.7401 20.8667L60.9314 16.8712L60.8358 16.8667H60.7401V20.8667ZM64.7507 21.0587H68.7507V17.2456L64.942 17.0632L64.7507 21.0587ZM64.7507 23.064L67.0446 26.3409L68.7507 25.1466V23.064H64.7507ZM63.4707 23.96L61.1769 20.6831L59.4707 21.8774V23.96H63.4707ZM56.6014 35.0107L58.478 38.5431L60.6014 37.4151V35.0107H56.6014ZM56.6014 23.768H60.6014V20.5155L57.4172 19.8521L56.6014 23.768ZM55.6628 23.6613V19.6613H55.6477L55.6327 19.6614L55.6628 23.6613ZM52.8041 28.0347L48.8041 28.0151L48.8041 28.0249V28.0347H52.8041ZM53.1667 33.688L49.4148 35.0746L49.421 35.0914L49.4273 35.108L53.1667 33.688ZM54.5961 42.5307C54.0867 42.5307 53.3131 42.4093 52.2207 42.008L49.4621 49.5173C51.1573 50.1401 52.8868 50.5307 54.5961 50.5307V42.5307ZM52.1868 41.9957C51.5968 41.785 51.2125 41.6141 50.9852 41.4941C50.875 41.436 50.8355 41.4075 50.845 41.4142C50.8492 41.4172 50.9537 41.4902 51.096 41.6473L45.1681 47.0194C45.8273 47.7468 46.6241 48.2384 47.2523 48.5699C47.9281 48.9264 48.6922 49.2425 49.4961 49.5296L52.1868 41.9957ZM51.7662 46.0045L53.1102 43.0819L45.8419 39.7395L44.4979 42.6621L51.7662 46.0045ZM47.0558 44.5953C48.0133 45.3231 49.1681 45.7357 50.1052 46.0034L52.303 38.3112C52.0217 38.2309 51.8498 38.1664 51.7614 38.1281C51.7196 38.1101 51.7122 38.1047 51.7312 38.1152C51.749 38.1252 51.8096 38.16 51.8964 38.226L47.0558 44.5953ZM50.1052 46.0034C51.1119 46.2911 52.1845 46.4987 53.2521 46.4987V38.4987C53.1819 38.4987 52.8892 38.4787 52.303 38.3112L50.1052 46.0034ZM53.2521 46.4987C54.1721 46.4987 55.167 46.3741 56.1427 46.004L53.3055 38.524C53.384 38.4942 53.4262 38.4884 53.417 38.4899C53.4073 38.4914 53.3552 38.4987 53.2521 38.4987V46.4987ZM55.989 46.0587C56.7846 45.7935 57.7282 45.3434 58.5338 44.5378L52.877 38.8809C53.0576 38.7003 53.2211 38.593 53.3212 38.5364C53.4201 38.4805 53.4746 38.4641 53.4592 38.4693L55.989 46.0587ZM58.4412 44.6275C59.1196 43.9914 59.5998 43.2493 59.9284 42.4936L52.5918 39.3038C52.6359 39.2023 52.7463 39.0006 52.9697 38.7912L58.4412 44.6275ZM59.9015 42.5539C60.1638 41.9768 60.4039 41.2763 60.4916 40.4871L52.5405 39.6036C52.5566 39.4588 52.5831 39.3559 52.5994 39.3013C52.6159 39.2465 52.6264 39.2262 52.6186 39.2435L59.9015 42.5539ZM60.4617 40.7029C60.5353 40.2612 60.5772 39.8147 60.5973 39.3736L52.6055 39.0104C52.5971 39.1951 52.5822 39.3175 52.5705 39.3877L60.4617 40.7029ZM60.6014 39.192V37.3787H52.6014V39.192H60.6014ZM53.7244 34.5997C53.2668 35.0734 52.8321 35.256 52.1854 35.256V43.256C55.0089 43.256 57.5183 42.187 59.4785 40.1576L53.7244 34.5997ZM52.1854 35.256C50.8495 35.256 50.5182 34.8717 50.3283 34.5929L43.7172 39.0978C45.7175 42.0332 48.828 43.256 52.1854 43.256V35.256ZM50.3283 34.5929C49.8522 33.8942 49.3801 32.5597 49.3801 30.1467H41.3801C41.3801 33.451 42.0031 36.5822 43.7172 39.0978L50.3283 34.5929ZM49.3801 30.1467C49.3801 29.106 49.4964 28.2262 49.6938 27.4836L41.9623 25.4284C41.5624 26.9329 41.3801 28.5136 41.3801 30.1467H49.3801ZM49.697 27.4716C49.8995 26.7001 50.1675 26.1234 50.4576 25.6881L43.8012 21.2505C42.9536 22.522 42.354 23.9363 41.9592 25.4404L49.697 27.4716ZM50.4492 25.7007C50.6615 25.3849 50.9118 25.1612 51.2447 24.9871L47.5368 17.8983C46.0208 18.6912 44.7636 19.8186 43.8096 21.238L50.4492 25.7007ZM51.2871 24.9646C51.5664 24.8142 51.9478 24.696 52.5268 24.696V16.696C50.7732 16.696 49.064 17.0756 47.4944 17.9208L51.2871 24.9646ZM52.5268 24.696C53.6839 24.696 54.4718 24.9466 55.0444 25.2926L59.1825 18.446C57.1666 17.2277 54.8968 16.696 52.5268 16.696V24.696ZM60.8749 23.2299L61.2376 22.2272L53.7146 19.5061L53.3519 20.5088L60.8749 23.2299ZM57.4761 24.8667H60.7401V16.8667H57.4761V24.8667ZM60.5488 24.8621L64.5595 25.0541L64.942 17.0632L60.9314 16.8712L60.5488 24.8621ZM60.7507 21.0587V23.064H68.7507V21.0587H60.7507ZM62.4569 19.7871L61.1769 20.6831L65.7646 27.2369L67.0446 26.3409L62.4569 19.7871ZM59.4707 23.96V38.2107H67.4707V23.96H59.4707ZM59.4707 38.2107C59.4707 40.299 58.9262 41.1483 58.5163 41.5325C58.0579 41.9623 56.9997 42.5307 54.5961 42.5307V50.5307C58.1089 50.5307 61.488 49.7124 63.9878 47.3688C66.5362 44.9797 67.4707 41.669 67.4707 38.2107H59.4707ZM55.2787 39.3733C56.4826 39.3733 57.5642 39.0286 58.478 38.5431L54.7248 31.4782C54.7284 31.4763 54.9282 31.3733 55.2787 31.3733V39.3733ZM60.6014 35.0107V23.768H52.6014V35.0107H60.6014ZM57.4172 19.8521C56.8652 19.7371 56.2745 19.6613 55.6628 19.6613V27.6613C55.6391 27.6613 55.6369 27.6599 55.6591 27.6624C55.6812 27.6649 55.7228 27.6708 55.7856 27.6839L57.4172 19.8521ZM55.6327 19.6614C53.4841 19.6776 51.4624 20.6168 50.1813 22.5768C49.0873 24.2503 48.8128 26.2536 48.8041 28.0151L56.804 28.0543C56.8066 27.5341 56.8518 27.1942 56.8958 26.9957C56.9403 26.795 56.9658 26.8189 56.8776 26.9539C56.7725 27.1146 56.5682 27.3349 56.2585 27.4952C55.962 27.6486 55.7359 27.6609 55.6928 27.6612L55.6327 19.6614ZM48.8041 28.0347V31.3413H56.8041V28.0347H48.8041ZM48.8041 31.3413C48.8041 32.5881 48.9674 33.8642 49.4148 35.0746L56.9187 32.3014C56.8825 32.2034 56.8041 31.915 56.8041 31.3413H48.8041ZM49.4273 35.108C49.8127 36.1229 50.4504 37.2252 51.5198 38.0786C52.6453 38.9767 53.9681 39.3733 55.2787 39.3733V31.3733C55.4186 31.3733 55.6221 31.3941 55.8597 31.4733C56.1014 31.5538 56.3234 31.6768 56.5097 31.8254C56.8751 32.1171 56.9475 32.3767 56.9062 32.268L49.4273 35.108Z" fill="#006B2C" mask="url(#path-1-outside-1_37_23)"/>
<mask id="path-3-outside-2_37_23" maskUnits="userSpaceOnUse" x="87" y="9" width="73" height="42" fill="black">
<rect fill="white" x="87" y="9" width="73" height="42"/>
<path d="M98.0668 39H91.6454L93.6294 13.9973H103.635L105.512 22.3813L106.365 26.6267L107.176 22.4027L108.84 13.9973H117.757L119.592 39H112.957L111.869 24.3013L111.613 18.8827L108.349 36.504H102.781L98.8561 18.8827L98.7281 24.3013L98.0668 39ZM127.306 39.448C125.969 39.448 124.618 39.2276 123.253 38.7867C121.887 38.3316 121.013 37.8907 120.629 37.464L121.183 34.0293C121.667 34.4987 122.47 34.904 123.594 35.2453C124.732 35.5867 125.891 35.7573 127.071 35.7573C127.925 35.7573 128.508 35.6507 128.821 35.4373C129.148 35.224 129.311 34.9253 129.311 34.5413C129.311 34.1716 129.027 33.8444 128.458 33.56C127.889 33.2613 126.965 32.92 125.685 32.536C122.371 31.5404 120.714 29.4782 120.714 26.3493C120.714 25.0693 121.084 23.9742 121.823 23.064C122.563 22.1396 123.509 21.4711 124.661 21.0587C125.813 20.6462 127.1 20.44 128.522 20.44C130.954 20.44 132.746 20.888 133.898 21.784C134.154 22.0258 134.282 22.1467 134.282 22.1467L133.343 25.1973C132.405 24.2729 131.11 23.8107 129.461 23.8107C128.109 23.8107 127.434 24.2089 127.434 25.0053C127.434 25.2329 127.484 25.4249 127.583 25.5813C127.683 25.7236 127.846 25.8516 128.074 25.9653C128.316 26.0649 128.55 26.1502 128.778 26.2213C129.005 26.2782 129.325 26.3636 129.738 26.4773C130.15 26.5769 130.506 26.6693 130.805 26.7547C132.469 27.3093 133.677 28.0916 134.431 29.1013C135.185 30.1111 135.562 31.3698 135.562 32.8773C135.562 37.2578 132.81 39.448 127.306 39.448ZM145.596 46.5307C144.487 46.5307 143.235 46.2747 141.841 45.7627C140.448 45.2649 139.545 44.7884 139.132 44.3333L140.476 41.4107C140.832 41.6809 141.408 41.9298 142.204 42.1573C143.001 42.3849 143.683 42.4987 144.252 42.4987C144.821 42.4987 145.312 42.4204 145.724 42.264C146.151 42.1218 146.478 41.9369 146.705 41.7093C146.933 41.496 147.118 41.2258 147.26 40.8987C147.402 40.5858 147.488 40.3013 147.516 40.0453C147.559 39.7893 147.587 39.5049 147.601 39.192V37.3787C146.393 38.6302 144.921 39.256 143.185 39.256C140.839 39.256 139.118 38.4524 138.023 36.8453C136.928 35.2382 136.38 33.0053 136.38 30.1467C136.38 28.8098 136.529 27.5796 136.828 26.456C137.127 25.3182 137.561 24.3227 138.129 23.4693C138.713 22.6018 139.466 21.9262 140.391 21.4427C141.315 20.9449 142.361 20.696 143.527 20.696C145.29 20.696 146.819 21.0871 148.113 21.8693L148.476 20.8667H151.74L155.751 21.0587V23.064L154.471 23.96V38.2107C154.471 43.7573 151.513 46.5307 145.596 46.5307ZM146.279 35.3733C146.705 35.3733 147.146 35.2524 147.601 35.0107V23.768C147.26 23.6969 146.947 23.6613 146.663 23.6613C144.771 23.6756 143.818 25.1333 143.804 28.0347V31.3413C143.804 32.2516 143.925 33.0338 144.167 33.688C144.593 34.8116 145.297 35.3733 146.279 35.3733Z"/>
</mask>
<path d="M98.0668 39H91.6454L93.6294 13.9973H103.635L105.512 22.3813L106.365 26.6267L107.176 22.4027L108.84 13.9973H117.757L119.592 39H112.957L111.869 24.3013L111.613 18.8827L108.349 36.504H102.781L98.8561 18.8827L98.7281 24.3013L98.0668 39ZM127.306 39.448C125.969 39.448 124.618 39.2276 123.253 38.7867C121.887 38.3316 121.013 37.8907 120.629 37.464L121.183 34.0293C121.667 34.4987 122.47 34.904 123.594 35.2453C124.732 35.5867 125.891 35.7573 127.071 35.7573C127.925 35.7573 128.508 35.6507 128.821 35.4373C129.148 35.224 129.311 34.9253 129.311 34.5413C129.311 34.1716 129.027 33.8444 128.458 33.56C127.889 33.2613 126.965 32.92 125.685 32.536C122.371 31.5404 120.714 29.4782 120.714 26.3493C120.714 25.0693 121.084 23.9742 121.823 23.064C122.563 22.1396 123.509 21.4711 124.661 21.0587C125.813 20.6462 127.1 20.44 128.522 20.44C130.954 20.44 132.746 20.888 133.898 21.784C134.154 22.0258 134.282 22.1467 134.282 22.1467L133.343 25.1973C132.405 24.2729 131.11 23.8107 129.461 23.8107C128.109 23.8107 127.434 24.2089 127.434 25.0053C127.434 25.2329 127.484 25.4249 127.583 25.5813C127.683 25.7236 127.846 25.8516 128.074 25.9653C128.316 26.0649 128.55 26.1502 128.778 26.2213C129.005 26.2782 129.325 26.3636 129.738 26.4773C130.15 26.5769 130.506 26.6693 130.805 26.7547C132.469 27.3093 133.677 28.0916 134.431 29.1013C135.185 30.1111 135.562 31.3698 135.562 32.8773C135.562 37.2578 132.81 39.448 127.306 39.448ZM145.596 46.5307C144.487 46.5307 143.235 46.2747 141.841 45.7627C140.448 45.2649 139.545 44.7884 139.132 44.3333L140.476 41.4107C140.832 41.6809 141.408 41.9298 142.204 42.1573C143.001 42.3849 143.683 42.4987 144.252 42.4987C144.821 42.4987 145.312 42.4204 145.724 42.264C146.151 42.1218 146.478 41.9369 146.705 41.7093C146.933 41.496 147.118 41.2258 147.26 40.8987C147.402 40.5858 147.488 40.3013 147.516 40.0453C147.559 39.7893 147.587 39.5049 147.601 39.192V37.3787C146.393 38.6302 144.921 39.256 143.185 39.256C140.839 39.256 139.118 38.4524 138.023 36.8453C136.928 35.2382 136.38 33.0053 136.38 30.1467C136.38 28.8098 136.529 27.5796 136.828 26.456C137.127 25.3182 137.561 24.3227 138.129 23.4693C138.713 22.6018 139.466 21.9262 140.391 21.4427C141.315 20.9449 142.361 20.696 143.527 20.696C145.29 20.696 146.819 21.0871 148.113 21.8693L148.476 20.8667H151.74L155.751 21.0587V23.064L154.471 23.96V38.2107C154.471 43.7573 151.513 46.5307 145.596 46.5307ZM146.279 35.3733C146.705 35.3733 147.146 35.2524 147.601 35.0107V23.768C147.26 23.6969 146.947 23.6613 146.663 23.6613C144.771 23.6756 143.818 25.1333 143.804 28.0347V31.3413C143.804 32.2516 143.925 33.0338 144.167 33.688C144.593 34.8116 145.297 35.3733 146.279 35.3733Z" fill="#00FFF4"/>
<path d="M98.0668 39V43H101.891L102.063 39.1798L98.0668 39ZM91.6454 39L87.658 38.6836L87.3154 43H91.6454V39ZM93.6294 13.9973V9.99733H89.9342L89.642 13.6809L93.6294 13.9973ZM103.635 13.9973L107.538 13.1233L106.838 9.99733H103.635V13.9973ZM105.512 22.3813L109.434 21.5931L109.425 21.5501L109.415 21.5073L105.512 22.3813ZM106.365 26.6267L102.444 27.4149L110.294 27.3806L106.365 26.6267ZM107.176 22.4027L103.252 21.6259L103.25 21.6373L103.248 21.6487L107.176 22.4027ZM108.84 13.9973V9.99733H105.554L104.916 13.2205L108.84 13.9973ZM117.757 13.9973L121.747 13.7046L121.475 9.99733H117.757V13.9973ZM119.592 39V43H123.896L123.581 38.7073L119.592 39ZM112.957 39L108.968 39.2953L109.243 43H112.957V39ZM111.869 24.3013L107.874 24.4901L107.876 24.5434L107.88 24.5966L111.869 24.3013ZM111.613 18.8827L115.609 18.6939L107.68 18.1541L111.613 18.8827ZM108.349 36.504V40.504H111.677L112.283 37.2325L108.349 36.504ZM102.781 36.504L98.8771 37.3737L99.5744 40.504H102.781V36.504ZM98.8561 18.8827L102.76 18.0129L94.8572 18.7882L98.8561 18.8827ZM98.7281 24.3013L102.724 24.4811L102.726 24.4385L102.727 24.3958L98.7281 24.3013ZM98.0668 35H91.6454V43H98.0668V35ZM95.6329 39.3164L97.6169 14.3137L89.642 13.6809L87.658 38.6836L95.6329 39.3164ZM93.6294 17.9973H103.635V9.99733H93.6294V17.9973ZM99.7314 14.8714L101.609 23.2554L109.415 21.5073L107.538 13.1233L99.7314 14.8714ZM101.591 23.1696L102.444 27.4149L110.287 25.8384L109.434 21.5931L101.591 23.1696ZM110.294 27.3806L111.104 23.1566L103.248 21.6487L102.437 25.8727L110.294 27.3806ZM111.1 23.1795L112.764 14.7741L104.916 13.2205L103.252 21.6259L111.1 23.1795ZM108.84 17.9973H117.757V9.99733H108.84V17.9973ZM113.768 14.2901L115.603 39.2927L123.581 38.7073L121.747 13.7046L113.768 14.2901ZM119.592 35H112.957V43H119.592V35ZM116.947 38.7047L115.859 24.0061L107.88 24.5966L108.968 39.2953L116.947 38.7047ZM115.865 24.1126L115.609 18.6939L107.618 19.0714L107.874 24.4901L115.865 24.1126ZM107.68 18.1541L104.416 35.7755L112.283 37.2325L115.547 19.6112L107.68 18.1541ZM108.349 32.504H102.781V40.504H108.349V32.504ZM106.686 35.6343L102.76 18.0129L94.9518 19.7524L98.8771 37.3737L106.686 35.6343ZM94.8572 18.7882L94.7292 24.2069L102.727 24.3958L102.855 18.9771L94.8572 18.7882ZM94.7321 24.1215L94.0708 38.8202L102.063 39.1798L102.724 24.4811L94.7321 24.1215ZM123.253 38.7867L121.988 42.5814L122.006 42.5873L122.023 42.5931L123.253 38.7867ZM120.629 37.464L116.68 36.8263L116.374 38.7166L117.655 40.1399L120.629 37.464ZM121.183 34.0293L123.969 31.159L118.459 25.8106L117.234 33.3916L121.183 34.0293ZM123.594 35.2453L122.431 39.0726L122.445 39.0766L123.594 35.2453ZM128.821 35.4373L126.636 32.0869L126.601 32.1093L126.567 32.1324L128.821 35.4373ZM128.458 33.56L126.599 37.1016L126.634 37.12L126.669 37.1377L128.458 33.56ZM125.685 32.536L124.534 36.3669L124.535 36.3673L125.685 32.536ZM121.823 23.064L124.928 25.5864L124.937 25.5746L124.947 25.5628L121.823 23.064ZM124.661 21.0587L123.312 17.2928L123.312 17.2928L124.661 21.0587ZM133.898 21.784L136.644 18.8759L136.505 18.7443L136.354 18.6266L133.898 21.784ZM134.282 22.1467L138.105 23.323L138.836 20.9461L137.028 19.2386L134.282 22.1467ZM133.343 25.1973L130.536 28.0473L135.229 32.669L137.166 26.3737L133.343 25.1973ZM127.583 25.5813L124.209 27.7288L124.256 27.8031L124.306 27.8752L127.583 25.5813ZM128.074 25.9653L126.285 29.543L126.416 29.6084L126.551 29.664L128.074 25.9653ZM128.778 26.2213L127.585 30.0393L127.695 30.0738L127.808 30.1019L128.778 26.2213ZM129.738 26.4773L128.674 30.3333L128.737 30.3505L128.799 30.3657L129.738 26.4773ZM130.805 26.7547L132.069 22.9599L131.987 22.9324L131.903 22.9086L130.805 26.7547ZM127.306 35.448C126.416 35.448 125.479 35.3022 124.482 34.9802L122.023 42.5931C123.757 43.1529 125.522 43.448 127.306 43.448V35.448ZM124.517 34.9919C123.942 34.8 123.578 34.646 123.373 34.5428C123.274 34.493 123.251 34.4742 123.279 34.4932C123.3 34.5077 123.432 34.6 123.602 34.7881L117.655 40.1399C118.334 40.8936 119.16 41.3779 119.772 41.6865C120.442 42.0242 121.198 42.3182 121.988 42.5814L124.517 34.9919ZM124.577 38.1017L125.132 34.667L117.234 33.3916L116.68 36.8263L124.577 38.1017ZM118.397 36.8997C119.561 38.0291 121.088 38.6647 122.431 39.0726L124.757 31.4181C124.352 31.2952 124.096 31.1874 123.95 31.114C123.797 31.0366 123.841 31.0349 123.969 31.159L118.397 36.8997ZM122.445 39.0766C123.953 39.5291 125.499 39.7573 127.071 39.7573V31.7573C126.283 31.7573 125.511 31.6442 124.743 31.414L122.445 39.0766ZM127.071 39.7573C127.644 39.7573 128.261 39.7231 128.868 39.612C129.432 39.509 130.269 39.2911 131.074 38.7422L126.567 32.1324C126.832 31.952 127.059 31.8572 127.19 31.8104C127.324 31.7625 127.411 31.7458 127.429 31.7426C127.453 31.7382 127.352 31.7573 127.071 31.7573V39.7573ZM131.006 38.7878C132.442 37.8512 133.311 36.3046 133.311 34.5413H125.311C125.311 34.1489 125.4 33.6437 125.68 33.1321C125.959 32.6233 126.329 32.287 126.636 32.0869L131.006 38.7878ZM133.311 34.5413C133.311 31.7773 131.146 30.4321 130.247 29.9823L126.669 37.1377C126.661 37.1335 126.597 37.1016 126.501 37.0326C126.406 36.9643 126.25 36.8397 126.079 36.6434C125.704 36.2115 125.311 35.4832 125.311 34.5413H133.311ZM130.317 30.0184C129.39 29.5313 128.156 29.1013 126.834 28.7047L124.535 36.3673C125.773 36.7387 126.389 36.9913 126.599 37.1016L130.317 30.0184ZM126.835 28.7051C125.717 28.3692 125.261 27.9696 125.075 27.7373C124.917 27.5409 124.714 27.1761 124.714 26.3493H116.714C116.714 28.6514 117.339 30.8822 118.838 32.748C120.309 34.5779 122.338 35.7073 124.534 36.3669L126.835 28.7051ZM124.714 26.3493C124.714 25.8983 124.822 25.7169 124.928 25.5864L118.719 20.5416C117.346 22.2315 116.714 24.2404 116.714 26.3493H124.714ZM124.947 25.5628C125.207 25.2371 125.53 24.9961 126.009 24.8246L123.312 17.2928C121.487 17.9462 119.918 19.042 118.7 20.5652L124.947 25.5628ZM126.009 24.8246C126.664 24.5899 127.486 24.44 128.522 24.44V16.44C126.713 16.44 124.961 16.7025 123.312 17.2928L126.009 24.8246ZM128.522 24.44C130.606 24.44 131.325 24.8504 131.442 24.9414L136.354 18.6266C134.167 16.9256 131.302 16.44 128.522 16.44V24.44ZM131.151 24.6921C131.235 24.7708 131.42 24.9457 131.439 24.9641C131.471 24.9943 131.495 25.0169 131.511 25.0321C131.516 25.0367 131.529 25.0482 131.529 25.0491C131.53 25.0498 131.531 25.051 131.532 25.0515C131.534 25.0533 131.532 25.0518 131.534 25.0533C131.534 25.0537 131.535 25.0542 131.535 25.0544C131.535 25.0545 131.535 25.0546 131.535 25.0546C131.535 25.0547 131.535 25.0547 131.535 25.0547C131.535 25.0547 131.535 25.0547 131.535 25.0547C131.535 25.0547 131.535 25.0547 131.535 25.0547C131.535 25.0547 131.535 25.0547 134.282 22.1467C137.028 19.2386 137.028 19.2386 137.028 19.2386C137.028 19.2386 137.028 19.2386 137.028 19.2386C137.028 19.2386 137.028 19.2386 137.028 19.2386C137.028 19.2386 137.028 19.2386 137.028 19.2385C137.028 19.2385 137.028 19.2384 137.028 19.2383C137.028 19.238 137.028 19.2381 137.028 19.2378C137.028 19.2378 137.028 19.2378 137.027 19.2378C137.027 19.2377 137.027 19.2377 137.027 19.2377C137.027 19.2377 137.027 19.2376 137.027 19.2375C137.027 19.2373 137.027 19.2375 137.027 19.2372C137.025 19.2351 137.026 19.236 137.022 19.233C137.016 19.2273 137.014 19.2254 137.004 19.216C136.974 19.1871 136.979 19.1919 136.932 19.148C136.764 18.9892 136.876 19.0951 136.644 18.8759L131.151 24.6921ZM130.459 20.9703L129.52 24.021L137.166 26.3737L138.105 23.323L130.459 20.9703ZM136.15 22.3474C134.285 20.511 131.882 19.8107 129.461 19.8107V27.8107C130.339 27.8107 130.524 28.0348 130.536 28.0473L136.15 22.3474ZM129.461 19.8107C128.523 19.8107 127.161 19.9256 125.909 20.6635C124.328 21.5955 123.434 23.2183 123.434 25.0053H131.434C131.434 25.3844 131.349 25.9099 131.042 26.4516C130.734 26.9962 130.32 27.35 129.972 27.5552C129.396 27.8948 129.047 27.8107 129.461 27.8107V19.8107ZM123.434 25.0053C123.434 25.8203 123.617 26.7986 124.209 27.7288L130.958 23.4338C131.351 24.0512 131.434 24.6455 131.434 25.0053H123.434ZM124.306 27.8752C124.924 28.7576 125.72 29.2604 126.285 29.543L129.863 22.3876C129.973 22.4427 130.442 22.6896 130.86 23.2875L124.306 27.8752ZM126.551 29.664C126.891 29.8039 127.236 29.9301 127.585 30.0393L129.971 22.4034C129.865 22.3703 129.741 22.3258 129.597 22.2666L126.551 29.664ZM127.808 30.1019C127.988 30.1471 128.272 30.2224 128.674 30.3333L130.802 22.6214C130.379 22.5047 130.022 22.4094 129.748 22.3408L127.808 30.1019ZM128.799 30.3657C129.176 30.4566 129.475 30.5349 129.706 30.6008L131.903 22.9086C131.536 22.8037 131.125 22.6972 130.676 22.589L128.799 30.3657ZM129.54 30.5494C130.723 30.9439 131.118 31.3499 131.226 31.4941L137.637 26.7086C136.237 24.8333 134.214 23.6747 132.069 22.9599L129.54 30.5494ZM131.226 31.4941C131.368 31.6851 131.562 32.0579 131.562 32.8773H139.562C139.562 30.6816 139.002 28.5371 137.637 26.7086L131.226 31.4941ZM131.562 32.8773C131.562 34.1775 131.199 34.5228 131.007 34.6756C130.641 34.967 129.634 35.448 127.306 35.448V43.448C130.482 43.448 133.603 42.8339 135.989 40.9351C138.549 38.8976 139.562 35.9576 139.562 32.8773H131.562ZM141.841 45.7627L143.221 42.008L143.204 42.0018L143.187 41.9957L141.841 45.7627ZM139.132 44.3333L135.498 42.6621L134.394 45.0621L136.168 47.0194L139.132 44.3333ZM140.476 41.4107L142.896 38.226L138.926 35.2082L136.842 39.7395L140.476 41.4107ZM142.204 42.1573L141.105 46.0034L141.105 46.0034L142.204 42.1573ZM145.724 42.264L144.459 38.4693L144.382 38.4951L144.305 38.524L145.724 42.264ZM146.705 41.7093L143.97 38.7912L143.923 38.8353L143.877 38.8809L146.705 41.7093ZM147.26 40.8987L143.619 39.2435L143.605 39.2735L143.592 39.3038L147.26 40.8987ZM147.516 40.0453L143.571 39.3877L143.553 39.4953L143.541 39.6036L147.516 40.0453ZM147.601 39.192L151.597 39.3736L151.601 39.2829V39.192H147.601ZM147.601 37.3787H151.601V27.4799L144.724 34.5997L147.601 37.3787ZM138.023 36.8453L134.717 39.0978L134.717 39.0978L138.023 36.8453ZM136.828 26.456L140.694 27.4836L140.697 27.4716L136.828 26.456ZM138.129 23.4693L134.81 21.238L134.805 21.2443L134.801 21.2505L138.129 23.4693ZM140.391 21.4427L142.245 24.9871L142.266 24.9759L142.287 24.9646L140.391 21.4427ZM148.113 21.8693L146.044 25.2926L150.217 27.8144L151.875 23.2299L148.113 21.8693ZM148.476 20.8667V16.8667H145.669L144.715 19.5061L148.476 20.8667ZM151.74 20.8667L151.931 16.8712L151.836 16.8667H151.74V20.8667ZM155.751 21.0587H159.751V17.2456L155.942 17.0632L155.751 21.0587ZM155.751 23.064L158.045 26.3409L159.751 25.1466V23.064H155.751ZM154.471 23.96L152.177 20.6831L150.471 21.8774V23.96H154.471ZM147.601 35.0107L149.478 38.5431L151.601 37.4151V35.0107H147.601ZM147.601 23.768H151.601V20.5155L148.417 19.8521L147.601 23.768ZM146.663 23.6613V19.6613H146.648L146.633 19.6614L146.663 23.6613ZM143.804 28.0347L139.804 28.0151L139.804 28.0249V28.0347H143.804ZM144.167 33.688L140.415 35.0746L140.421 35.0914L140.427 35.108L144.167 33.688ZM145.596 42.5307C145.087 42.5307 144.313 42.4093 143.221 42.008L140.462 49.5173C142.157 50.1401 143.887 50.5307 145.596 50.5307V42.5307ZM143.187 41.9957C142.597 41.785 142.212 41.6141 141.985 41.4941C141.875 41.436 141.836 41.4075 141.845 41.4142C141.849 41.4172 141.954 41.4902 142.096 41.6473L136.168 47.0194C136.827 47.7468 137.624 48.2384 138.252 48.5699C138.928 48.9264 139.692 49.2425 140.496 49.5296L143.187 41.9957ZM142.766 46.0045L144.11 43.0819L136.842 39.7395L135.498 42.6621L142.766 46.0045ZM138.056 44.5953C139.013 45.3231 140.168 45.7357 141.105 46.0034L143.303 38.3112C143.022 38.2309 142.85 38.1664 142.761 38.1281C142.72 38.1101 142.712 38.1047 142.731 38.1152C142.749 38.1252 142.81 38.16 142.896 38.226L138.056 44.5953ZM141.105 46.0034C142.112 46.2911 143.185 46.4987 144.252 46.4987V38.4987C144.182 38.4987 143.889 38.4787 143.303 38.3112L141.105 46.0034ZM144.252 46.4987C145.172 46.4987 146.167 46.3741 147.143 46.004L144.305 38.524C144.384 38.4942 144.426 38.4884 144.417 38.4899C144.407 38.4914 144.355 38.4987 144.252 38.4987V46.4987ZM146.989 46.0587C147.785 45.7935 148.728 45.3434 149.534 44.5378L143.877 38.8809C144.058 38.7003 144.221 38.593 144.321 38.5364C144.42 38.4805 144.475 38.4641 144.459 38.4693L146.989 46.0587ZM149.441 44.6275C150.12 43.9914 150.6 43.2493 150.928 42.4936L143.592 39.3038C143.636 39.2023 143.746 39.0006 143.97 38.7912L149.441 44.6275ZM150.902 42.5539C151.164 41.9768 151.404 41.2763 151.492 40.4871L143.541 39.6036C143.557 39.4588 143.583 39.3559 143.599 39.3013C143.616 39.2465 143.626 39.2262 143.619 39.2435L150.902 42.5539ZM151.462 40.7029C151.535 40.2612 151.577 39.8147 151.597 39.3736L143.606 39.0104C143.597 39.1951 143.582 39.3175 143.571 39.3877L151.462 40.7029ZM151.601 39.192V37.3787H143.601V39.192H151.601ZM144.724 34.5997C144.267 35.0734 143.832 35.256 143.185 35.256V43.256C146.009 43.256 148.518 42.187 150.478 40.1576L144.724 34.5997ZM143.185 35.256C141.85 35.256 141.518 34.8717 141.328 34.5929L134.717 39.0978C136.717 42.0332 139.828 43.256 143.185 43.256V35.256ZM141.328 34.5929C140.852 33.8942 140.38 32.5597 140.38 30.1467H132.38C132.38 33.451 133.003 36.5822 134.717 39.0978L141.328 34.5929ZM140.38 30.1467C140.38 29.106 140.496 28.2262 140.694 27.4836L132.962 25.4284C132.562 26.9329 132.38 28.5136 132.38 30.1467H140.38ZM140.697 27.4716C140.9 26.7001 141.167 26.1234 141.458 25.6881L134.801 21.2505C133.954 22.522 133.354 23.9363 132.959 25.4404L140.697 27.4716ZM141.449 25.7007C141.661 25.3849 141.912 25.1612 142.245 24.9871L138.537 17.8983C137.021 18.6912 135.764 19.8186 134.81 21.238L141.449 25.7007ZM142.287 24.9646C142.566 24.8142 142.948 24.696 143.527 24.696V16.696C141.773 16.696 140.064 17.0756 138.494 17.9208L142.287 24.9646ZM143.527 24.696C144.684 24.696 145.472 24.9466 146.044 25.2926L150.182 18.446C148.167 17.2277 145.897 16.696 143.527 16.696V24.696ZM151.875 23.2299L152.238 22.2272L144.715 19.5061L144.352 20.5088L151.875 23.2299ZM148.476 24.8667H151.74V16.8667H148.476V24.8667ZM151.549 24.8621L155.559 25.0541L155.942 17.0632L151.931 16.8712L151.549 24.8621ZM151.751 21.0587V23.064H159.751V21.0587H151.751ZM153.457 19.7871L152.177 20.6831L156.765 27.2369L158.045 26.3409L153.457 19.7871ZM150.471 23.96V38.2107H158.471V23.96H150.471ZM150.471 38.2107C150.471 40.299 149.926 41.1483 149.516 41.5325C149.058 41.9623 148 42.5307 145.596 42.5307V50.5307C149.109 50.5307 152.488 49.7124 154.988 47.3688C157.536 44.9797 158.471 41.669 158.471 38.2107H150.471ZM146.279 39.3733C147.483 39.3733 148.564 39.0286 149.478 38.5431L145.725 31.4782C145.728 31.4763 145.928 31.3733 146.279 31.3733V39.3733ZM151.601 35.0107V23.768H143.601V35.0107H151.601ZM148.417 19.8521C147.865 19.7371 147.275 19.6613 146.663 19.6613V27.6613C146.639 27.6613 146.637 27.6599 146.659 27.6624C146.681 27.6649 146.723 27.6708 146.786 27.6839L148.417 19.8521ZM146.633 19.6614C144.484 19.6776 142.462 20.6168 141.181 22.5768C140.087 24.2503 139.813 26.2536 139.804 28.0151L147.804 28.0543C147.807 27.5341 147.852 27.1942 147.896 26.9957C147.94 26.795 147.966 26.8189 147.878 26.9539C147.773 27.1146 147.568 27.3349 147.259 27.4952C146.962 27.6486 146.736 27.6609 146.693 27.6612L146.633 19.6614ZM139.804 28.0347V31.3413H147.804V28.0347H139.804ZM139.804 31.3413C139.804 32.5881 139.967 33.8642 140.415 35.0746L147.919 32.3014C147.883 32.2034 147.804 31.915 147.804 31.3413H139.804ZM140.427 35.108C140.813 36.1229 141.45 37.2252 142.52 38.0786C143.645 38.9767 144.968 39.3733 146.279 39.3733V31.3733C146.419 31.3733 146.622 31.3941 146.86 31.4733C147.101 31.5538 147.323 31.6768 147.51 31.8254C147.875 32.1171 147.947 32.3767 147.906 32.268L140.427 35.108Z" fill="#006B66" mask="url(#path-3-outside-2_37_23)"/>
<mask id="path-5-outside-3_37_23" maskUnits="userSpaceOnUse" x="62" y="16" width="34" height="25" fill="black">
<rect fill="white" x="62" y="16" width="34" height="25"/>
<path d="M64.5508 26.6602H76.3984V30.6504H64.5508V26.6602ZM78.8945 37.8047V33.0586L89.793 28.6289V28.3477L78.8945 23.918V19.207L93.2207 25.6055V31.5117L78.8945 37.8047Z"/>
</mask>
<path d="M64.5508 26.6602H76.3984V30.6504H64.5508V26.6602ZM78.8945 37.8047V33.0586L89.793 28.6289V28.3477L78.8945 23.918V19.207L93.2207 25.6055V31.5117L78.8945 37.8047Z" fill="black"/>
<path d="M64.5508 26.6602V24.6602H62.5508V26.6602H64.5508ZM76.3984 26.6602H78.3984V24.6602H76.3984V26.6602ZM76.3984 30.6504V32.6504H78.3984V30.6504H76.3984ZM64.5508 30.6504H62.5508V32.6504H64.5508V30.6504ZM64.5508 28.6602H76.3984V24.6602H64.5508V28.6602ZM74.3984 26.6602V30.6504H78.3984V26.6602H74.3984ZM76.3984 28.6504H64.5508V32.6504H76.3984V28.6504ZM66.5508 30.6504V26.6602H62.5508V30.6504H66.5508ZM78.8945 37.8047H76.8945V40.8677L79.6989 39.6358L78.8945 37.8047ZM78.8945 33.0586L78.1415 31.2058L76.8945 31.7126V33.0586H78.8945ZM89.793 28.6289L90.546 30.4817L91.793 29.9749V28.6289H89.793ZM89.793 28.3477H91.793V27.0017L90.546 26.4949L89.793 28.3477ZM78.8945 23.918H76.8945V25.264L78.1415 25.7708L78.8945 23.918ZM78.8945 19.207L79.7101 17.3809L76.8945 16.1234V19.207H78.8945ZM93.2207 25.6055H95.2207V24.3083L94.0363 23.7793L93.2207 25.6055ZM93.2207 31.5117L94.0251 33.3428L95.2207 32.8176V31.5117H93.2207ZM80.8945 37.8047V33.0586H76.8945V37.8047H80.8945ZM79.6476 34.9114L90.546 30.4817L89.0399 26.7761L78.1415 31.2058L79.6476 34.9114ZM91.793 28.6289V28.3477H87.793V28.6289H91.793ZM90.546 26.4949L79.6476 22.0652L78.1415 25.7708L89.0399 30.2005L90.546 26.4949ZM80.8945 23.918V19.207H76.8945V23.918H80.8945ZM78.0789 21.0332L92.4051 27.4316L94.0363 23.7793L79.7101 17.3809L78.0789 21.0332ZM91.2207 25.6055V31.5117H95.2207V25.6055H91.2207ZM92.4164 29.6806L78.0902 35.9736L79.6989 39.6358L94.0251 33.3428L92.4164 29.6806Z" fill="white" mask="url(#path-5-outside-3_37_23)"/>
</svg>
